<?xml-stylesheet href="https://s3.amazonaws.com/maker.works.boards/css/blackpcb.css" type="text/css"?><svg xmlns="http://www.w3.org/2000/svg" version="1.1" xmlns:xlink="http://www.w3.org/1999/xlink" stroke-width="0" stroke-linecap="round" stroke-linejoin="round" width="1.192in" height="1.4946in" id="pcb_bottom" viewBox="0 0 1192 1494.6"><defs><circle cx="0" cy="0" r="6.5" id="tool-T10-pad-1000"/><circle cx="0" cy="0" r="10" id="tool-T11-pad-1001"/><circle cx="0" cy="0" r="17.5" id="tool-T12-pad-1002"/><circle cx="0" cy="0" r="20" id="tool-T13-pad-1003"/><circle cx="0" cy="0" r="63" id="tool-T14-pad-1004"/><polygon points="28.000016991819567,11.597986784688775 11.597986784688777,28.000016991819567 -11.597986784688773,28.000016991819567 -28.000016991819567,11.597986784688779 -28.00001699181957,-11.597986784688771 -11.597986784688793,-28.00001699181956 11.597986784688782,-28.000016991819564 28.00001699181956,-11.597986784688795" id="tool-D10-pad-1005"/><polygon points="29.999754239940245,12.426305074043013 12.426305074043015,29.999754239940245 -12.426305074043011,29.999754239940245 -29.999754239940245,12.426305074043016 -29.99975423994025,-12.42630507404301 -12.42630507404303,-29.999754239940238 12.42630507404302,-29.99975423994024 29.999754239940238,-12.426305074043032" id="tool-D11-pad-1006"/><circle cx="0" cy="0" r="17" id="tool-D13-pad-1008"/><circle cx="0" cy="0" r="13.5" id="tool-D15-pad-1010"/><circle cx="0" cy="0" r="66" id="tool-D10-pad-1014"/><polygon points="30.999853833883716,12.840559889578223 12.840559889578225,30.999853833883716 -12.840559889578222,30.999853833883716 -30.999853833883716,12.840559889578227 -30.99985383388372,-12.84055988957822 -12.840559889578241,-30.99985383388371 12.84055988957823,-30.999853833883712 30.99985383388371,-12.840559889578245" id="tool-D11-pad-1015"/><polygon points="33.000053021770654,13.669069520648643 13.669069520648645,33.000053021770654 -13.669069520648641,33.000053021770654 -33.000053021770654,13.669069520648646 -33.000053021770654,-13.66906952064864 -13.669069520648662,-33.00005302177065 13.66906952064865,-33.00005302177065 33.00005302177065,-13.669069520648664" id="tool-D12-pad-1016"/><circle cx="0" cy="0" r="20" id="tool-D13-pad-1017"/><circle cx="0" cy="0" r="16.5" id="tool-D14-pad-1018"/><g id="pcb_bottom-cu" fill="currentColor" stroke="currentColor"><use x="45" y="45" xlink:href="#tool-D10-pad-1005"/><use x="45" y="145" xlink:href="#tool-D10-pad-1005"/><use x="45" y="245" xlink:href="#tool-D10-pad-1005"/><use x="45" y="345" xlink:href="#tool-D10-pad-1005"/><use x="45" y="445" xlink:href="#tool-D10-pad-1005"/><use x="45" y="545" xlink:href="#tool-D10-pad-1005"/><use x="45" y="645" xlink:href="#tool-D10-pad-1005"/><use x="45" y="745" xlink:href="#tool-D10-pad-1005"/><use x="45" y="845" xlink:href="#tool-D10-pad-1005"/><use x="45" y="945" xlink:href="#tool-D10-pad-1005"/><use x="45" y="1045" xlink:href="#tool-D10-pad-1005"/><use x="45" y="1145" xlink:href="#tool-D10-pad-1005"/><use x="45" y="1245" xlink:href="#tool-D10-pad-1005"/><use x="45" y="1345" xlink:href="#tool-D10-pad-1005"/><use x="45" y="1445" xlink:href="#tool-D10-pad-1005"/><use x="245" y="1445" xlink:href="#tool-D10-pad-1005"/><use x="245" y="1345" xlink:href="#tool-D10-pad-1005"/><use x="245" y="1245" xlink:href="#tool-D10-pad-1005"/><use x="245" y="1145" xlink:href="#tool-D10-pad-1005"/><use x="245" y="1045" xlink:href="#tool-D10-pad-1005"/><use x="245" y="945" xlink:href="#tool-D10-pad-1005"/><use x="245" y="845" xlink:href="#tool-D10-pad-1005"/><use x="245" y="745" xlink:href="#tool-D10-pad-1005"/><use x="245" y="645" xlink:href="#tool-D10-pad-1005"/><use x="245" y="545" xlink:href="#tool-D10-pad-1005"/><use x="245" y="445" xlink:href="#tool-D10-pad-1005"/><use x="245" y="345" xlink:href="#tool-D10-pad-1005"/><use x="245" y="245" xlink:href="#tool-D10-pad-1005"/><use x="245" y="145" xlink:href="#tool-D10-pad-1005"/><use x="245" y="45" xlink:href="#tool-D10-pad-1005"/><use x="1045" y="45" xlink:href="#tool-D10-pad-1005"/><use x="1045" y="145" xlink:href="#tool-D10-pad-1005"/><use x="1045" y="245" xlink:href="#tool-D10-pad-1005"/><use x="1045" y="345" xlink:href="#tool-D10-pad-1005"/><use x="1045" y="445" xlink:href="#tool-D10-pad-1005"/><use x="1045" y="545" xlink:href="#tool-D10-pad-1005"/><use x="1045" y="645" xlink:href="#tool-D10-pad-1005"/><use x="1045" y="745" xlink:href="#tool-D10-pad-1005"/><use x="1045" y="845" xlink:href="#tool-D10-pad-1005"/><use x="1045" y="945" xlink:href="#tool-D10-pad-1005"/><use x="1045" y="1045" xlink:href="#tool-D10-pad-1005"/><use x="1045" y="1145" xlink:href="#tool-D10-pad-1005"/><use x="1045" y="1245" xlink:href="#tool-D10-pad-1005"/><use x="1045" y="1345" xlink:href="#tool-D10-pad-1005"/><use x="1045" y="1445" xlink:href="#tool-D10-pad-1005"/><use x="1145" y="1445" xlink:href="#tool-D10-pad-1005"/><use x="1145" y="1345" xlink:href="#tool-D10-pad-1005"/><use x="1145" y="1245" xlink:href="#tool-D10-pad-1005"/><use x="1145" y="1145" xlink:href="#tool-D10-pad-1005"/><use x="1145" y="1045" xlink:href="#tool-D10-pad-1005"/><use x="1145" y="945" xlink:href="#tool-D10-pad-1005"/><use x="1145" y="845" xlink:href="#tool-D10-pad-1005"/><use x="1145" y="745" xlink:href="#tool-D10-pad-1005"/><use x="1145" y="645" xlink:href="#tool-D10-pad-1005"/><use x="1145" y="545" xlink:href="#tool-D10-pad-1005"/><use x="1145" y="445" xlink:href="#tool-D10-pad-1005"/><use x="1145" y="345" xlink:href="#tool-D10-pad-1005"/><use x="1145" y="245" xlink:href="#tool-D10-pad-1005"/><use x="1145" y="145" xlink:href="#tool-D10-pad-1005"/><use x="1145" y="45" xlink:href="#tool-D10-pad-1005"/><use x="945" y="245" xlink:href="#tool-D11-pad-1006"/><use x="945" y="345" xlink:href="#tool-D11-pad-1006"/><use x="845" y="345" xlink:href="#tool-D11-pad-1006"/><use x="845" y="245" xlink:href="#tool-D11-pad-1006"/><use x="745" y="245" xlink:href="#tool-D11-pad-1006"/><use x="745" y="345" xlink:href="#tool-D11-pad-1006"/><use x="645" y="345" xlink:href="#tool-D11-pad-1006"/><use x="645" y="245" xlink:href="#tool-D11-pad-1006"/><use x="545" y="245" xlink:href="#tool-D11-pad-1006"/><use x="545" y="345" xlink:href="#tool-D11-pad-1006"/><use x="445" y="345" xlink:href="#tool-D11-pad-1006"/><use x="445" y="245" xlink:href="#tool-D11-pad-1006"/><use x="345" y="245" xlink:href="#tool-D11-pad-1006"/><use x="345" y="345" xlink:href="#tool-D11-pad-1006"/><use x="345" y="1345" xlink:href="#tool-D11-pad-1006"/><use x="345" y="1445" xlink:href="#tool-D11-pad-1006"/><use x="445" y="1445" xlink:href="#tool-D11-pad-1006"/><use x="445" y="1345" xlink:href="#tool-D11-pad-1006"/><use x="545" y="1345" xlink:href="#tool-D11-pad-1006"/><use x="545" y="1445" xlink:href="#tool-D11-pad-1006"/><use x="645" y="1445" xlink:href="#tool-D11-pad-1006"/><use x="645" y="1345" xlink:href="#tool-D11-pad-1006"/><use x="745" y="1345" xlink:href="#tool-D11-pad-1006"/><use x="745" y="1445" xlink:href="#tool-D11-pad-1006"/><use x="845" y="1445" xlink:href="#tool-D11-pad-1006"/><use x="845" y="1345" xlink:href="#tool-D11-pad-1006"/><use x="945" y="1345" xlink:href="#tool-D11-pad-1006"/><use x="945" y="1445" xlink:href="#tool-D11-pad-1006"/><path stroke-width="28" fill="none" d="M 988.8 1395 L 895 1395 M 895 1395 L 845 1445 M 845 1445 L 832.5 1438.8 M 832.5 1438.8 L 788.8 1395 M 788.8 1395 L 413.8 1395 M 413.8 1395 L 404.4 1385.6 M 404.4 1385.6 L 395 1395 M 395 1395 L 301.3 1395 M 301.3 1395 L 257.5 1351.3 M 257.5 1351.3 L 245 1345 M 245 1345 L 45 1345 M 276.3 907.5 L 263.8 895 M 263.8 895 L 207.5 895 M 276.3 907.5 L 976.3 907.5 M 976.3 907.5 L 982.5 913.8 M 1095 995 L 538.8 995 M 538.8 995 L 532.5 988.8 M 532.5 988.8 L 445 988.8 M 438.8 1251.3 L 982.5 1251.3 M 982.5 1251.3 L 1026.3 1295 M 1026.3 1295 L 1095 1295 M 1045 1345 L 1032.5 1351.3 M 1032.5 1351.3 L 988.8 1395 M 1045 1345 L 1145 1345 M 1095 1095 L 976.3 1095 M 1095 1095 L 1145 1045 M 1095 995 L 1145 945 M 445 645 L 245 645 M 438.8 1251.3 L 345 1345 M 404.4 1385.6 L 445 1345"/><use x="445" y="988.8" xlink:href="#tool-D13-pad-1008"/><use x="445" y="645" xlink:href="#tool-D13-pad-1008"/><use x="207.5" y="895" xlink:href="#tool-D13-pad-1008"/><use x="982.5" y="913.8" xlink:href="#tool-D13-pad-1008"/><use x="976.3" y="1095" xlink:href="#tool-D13-pad-1008"/><use x="1095" y="1295" xlink:href="#tool-D13-pad-1008"/><path stroke-width="6" fill="none" d="M 1045 1245 L 1038.8 1245 M 1038.8 1245 L 857.5 1063.8 M 857.5 1063.8 L 445 1063.8 M 445 1063.8 L 388.8 1120 M 426.3 1145 L 245 1145 M 207.5 1082.5 L 301.3 1082.5 M 245 1045 L 132.5 1045 M 132.5 1045 L 107.5 1020 M 107.5 982.5 L 320 982.5 M 245 945 L 745 945 M 745 945 L 1045 945 M 1026.3 1026.3 L 520 1026.3 M 426.3 1145 L 482.5 1201.3 M 520 1288.8 L 645 1288.8 M 645 1288.8 L 670 1313.8 M 670 1313.8 L 713.8 1313.8 M 713.8 1313.8 L 745 1345 M 707.5 1288.8 L 888.8 1288.8 M 888.8 1288.8 L 945 1345 M 1045 1045 L 1026.3 1026.3 M 1107.5 882.5 L 1145 845 M 1120 801.3 L 888.8 801.3 M 888.8 801.3 L 882.5 795 M 870 770 L 1013.8 770 M 1013.8 770 L 1026.3 782.5 M 1026.3 782.5 L 1101.3 782.5 M 1101.3 782.5 L 1138.8 745 M 1138.8 745 L 1145 745 M 1095 695 L 1145 645 M 1095 695 L 920 695 M 920 695 L 845 770 M 845 770 L 320 770 M 363.8 845 L 1045 845 M 1107.5 882.5 L 401.3 882.5 M 401.3 882.5 L 388.8 870 M 495 807.5 L 507.5 820 M 495 807.5 L 145 807.5 M 145 807.5 L 113.8 838.8 M 113.8 838.8 L 51.3 838.8 M 51.3 838.8 L 45 845 M 82.5 813.8 L 101.3 795 M 101.3 795 L 845 795 M 845 795 L 870 770 M 907.5 745 L 1045 745 M 1007.5 682.5 L 857.5 682.5 M 857.5 682.5 L 795 745 M 770 701.3 L 982.5 488.8 M 1007.5 463.8 L 1051.3 507.5 M 1051.3 507.5 L 1107.5 507.5 M 1107.5 507.5 L 1145 545 M 1145 445 L 1107.5 445 M 1107.5 445 L 1107.5 351.3 M 1107.5 351.3 L 1057.5 301.3 M 1057.5 301.3 L 845 301.3 M 845 301.3 L 795 251.3 M 901.3 145 L 245 145 M 207.5 188.8 L 207.5 307.5 M 207.5 307.5 L 288.8 307.5 M 288.8 307.5 L 326.3 345 M 326.3 345 L 345 345 M 301.3 301.3 L 401.3 301.3 M 401.3 301.3 L 445 345 M 476.3 388.8 L 288.8 388.8 M 288.8 388.8 L 245 345 M 245 345 L 182.5 345 M 182.5 345 L 182.5 182.5 M 182.5 182.5 L 45 45 M 182.5 107.5 L 182.5 163.8 M 182.5 163.8 L 207.5 188.8 M 245 245 L 301.3 301.3 M 201.3 407.5 L 457.5 407.5 M 457.5 407.5 L 476.3 426.3 M 476.3 426.3 L 520 426.3 M 520 426.3 L 588.8 357.5 M 588.8 357.5 L 588.8 213.8 M 588.8 213.8 L 620 213.8 M 620 213.8 L 632.5 201.3 M 632.5 201.3 L 1101.3 201.3 M 1101.3 201.3 L 1145 245 M 1101.3 188.8 L 1145 145 M 1101.3 188.8 L 601.3 188.8 M 620 170 L 613.8 163.8 M 613.8 163.8 L 526.3 163.8 M 526.3 163.8 L 445 245 M 476.3 388.8 L 488.8 401.3 M 576.2 495 L 607.5 463.8 M 607.5 463.8 L 1007.5 463.8 M 1045 445 L 1001.3 401.3 M 1001.3 401.3 L 645 401.3 M 645 401.3 L 601.3 357.5 M 601.3 357.5 L 601.3 245 M 601.3 245 L 645 245 M 620 170 L 982.5 170 M 982.5 170 L 988.8 163.8 M 1045 345 L 1001.3 388.8 M 1001.3 388.8 L 688.8 388.8 M 688.8 388.8 L 645 345 M 576.2 495 L 188.8 495 M 188.8 495 L 138.8 445 M 138.8 445 L 45 445 M 107.5 470 L 232.5 595 M 232.5 595 L 295 595 M 307.5 620 L 282.5 620 M 282.5 620 L 270 607.5 M 270 607.5 L 107.5 607.5 M 107.5 607.5 L 45 545 M 45 645 L 82.5 682.5 M 82.5 682.5 L 626.3 682.5 M 626.3 682.5 L 795 513.8 M 770 576.3 L 601.3 745 M 601.3 745 L 245 745 M 245 745 L 45 745 M 157.5 832.5 L 45 945 M 107.5 982.5 L 45 1045 M 132.5 1195 L 163.8 1226.3 M 163.8 1226.3 L 570 1226.3 M 570 1226.3 L 582.5 1213.8 M 245 1245 L 182.5 1245 M 182.5 1245 L 163.8 1226.3 M 45 1245 L 207.5 1082.5 M 307.5 620 L 320 607.5 M 320 607.5 L 563.8 607.5 M 563.8 607.5 L 582.5 626.3 M 320 607.5 L 320 570 M 170 438.7 L 201.3 407.5 M 182.5 107.5 L 245 45 M 863.8 657.5 L 932.5 657.5 M 932.5 657.5 L 1045 545 M 1045 645 L 1007.5 682.5"/><use x="907.5" y="745" xlink:href="#tool-D15-pad-1010"/><use x="882.5" y="795" xlink:href="#tool-D15-pad-1010"/><use x="795" y="745" xlink:href="#tool-D15-pad-1010"/><use x="770" y="701.3" xlink:href="#tool-D15-pad-1010"/><use x="770" y="576.3" xlink:href="#tool-D15-pad-1010"/><use x="795" y="513.8" xlink:href="#tool-D15-pad-1010"/><use x="863.8" y="657.5" xlink:href="#tool-D15-pad-1010"/><use x="982.5" y="488.8" xlink:href="#tool-D15-pad-1010"/><use x="795" y="251.3" xlink:href="#tool-D15-pad-1010"/><use x="901.3" y="145" xlink:href="#tool-D15-pad-1010"/><use x="988.8" y="163.8" xlink:href="#tool-D15-pad-1010"/><use x="601.3" y="188.8" xlink:href="#tool-D15-pad-1010"/><use x="488.8" y="401.3" xlink:href="#tool-D15-pad-1010"/><use x="582.5" y="626.3" xlink:href="#tool-D15-pad-1010"/><use x="507.5" y="820" xlink:href="#tool-D15-pad-1010"/><use x="388.8" y="870" xlink:href="#tool-D15-pad-1010"/><use x="363.8" y="845" xlink:href="#tool-D15-pad-1010"/><use x="320" y="770" xlink:href="#tool-D15-pad-1010"/><use x="295" y="595" xlink:href="#tool-D15-pad-1010"/><use x="320" y="570" xlink:href="#tool-D15-pad-1010"/><use x="170" y="438.7" xlink:href="#tool-D15-pad-1010"/><use x="107.5" y="470" xlink:href="#tool-D15-pad-1010"/><use x="82.5" y="813.8" xlink:href="#tool-D15-pad-1010"/><use x="157.5" y="832.5" xlink:href="#tool-D15-pad-1010"/><use x="107.5" y="1020" xlink:href="#tool-D15-pad-1010"/><use x="132.5" y="1195" xlink:href="#tool-D15-pad-1010"/><use x="301.3" y="1082.5" xlink:href="#tool-D15-pad-1010"/><use x="320" y="982.5" xlink:href="#tool-D15-pad-1010"/><use x="388.8" y="1120" xlink:href="#tool-D15-pad-1010"/><use x="482.5" y="1201.3" xlink:href="#tool-D15-pad-1010"/><use x="520" y="1288.8" xlink:href="#tool-D15-pad-1010"/><use x="582.5" y="1213.8" xlink:href="#tool-D15-pad-1010"/><use x="520" y="1026.3" xlink:href="#tool-D15-pad-1010"/><use x="707.5" y="1288.8" xlink:href="#tool-D15-pad-1010"/><use x="745" y="945" xlink:href="#tool-D15-pad-1010"/><use x="1120" y="801.3" xlink:href="#tool-D15-pad-1010"/></g><mask id="pcb_bottom_mech-mask" fill="#fff" stroke="#fff" fill-rule="evenodd"><path stroke-width="0" d="M 39.4 0 L 38.1 0 L 36.9 0.1 L 35.7 0.2 L 34.4 0.3 L 33.2 0.5 L 32 0.7 L 30.8 1 L 29.6 1.2 L 28.4 1.6 L 27.2 1.9 L 26 2.3 L 24.9 2.8 L 23.7 3.2 L 22.6 3.8 L 21.5 4.3 L 20.4 4.9 L 19.3 5.5 L 18.3 6.1 L 17.2 6.8 L 16.2 7.5 L 15.2 8.3 L 14.3 9 L 13.3 9.8 L 12.4 10.7 L 11.5 11.5 L 10.7 12.4 L 9.8 13.3 L 9 14.3 L 8.3 15.2 L 7.5 16.2 L 6.8 17.2 L 6.1 18.3 L 5.5 19.3 L 4.9 20.4 L 4.3 21.5 L 3.8 22.6 L 3.2 23.7 L 2.8 24.9 L 2.3 26 L 1.9 27.2 L 1.6 28.4 L 1.2 29.6 L 1 30.8 L 0.7 32 L 0.5 33.2 L 0.3 34.4 L 0.2 35.7 L 0.1 36.9 L 0 38.1 L 0 39.4 L 0 1455.2 L 0 1456.5 L 0.1 1457.7 L 0.2 1459 L 0.3 1460.2 L 0.5 1461.4 L 0.7 1462.6 L 1 1463.8 L 1.2 1465 L 1.6 1466.2 L 1.9 1467.4 L 2.3 1468.6 L 2.8 1469.7 L 3.2 1470.9 L 3.8 1472 L 4.3 1473.1 L 4.9 1474.2 L 5.5 1475.3 L 6.1 1476.3 L 6.8 1477.4 L 7.5 1478.4 L 8.3 1479.4 L 9 1480.3 L 9.8 1481.3 L 10.7 1482.2 L 11.5 1483.1 L 12.4 1483.9 L 13.3 1484.8 L 14.3 1485.6 L 15.2 1486.4 L 16.2 1487.1 L 17.2 1487.8 L 18.3 1488.5 L 19.3 1489.1 L 20.4 1489.7 L 21.5 1490.3 L 22.6 1490.9 L 23.7 1491.4 L 24.9 1491.9 L 26 1492.3 L 27.2 1492.7 L 28.4 1493.1 L 29.6 1493.4 L 30.8 1493.7 L 32 1493.9 L 33.2 1494.1 L 34.4 1494.3 L 35.7 1494.4 L 36.9 1494.5 L 38.1 1494.6 L 39.4 1494.6 L 1152.6 1494.6 L 1153.9 1494.6 L 1155.1 1494.5 L 1156.3 1494.4 L 1157.6 1494.3 L 1158.8 1494.1 L 1160 1493.9 L 1161.2 1493.7 L 1162.4 1493.4 L 1163.6 1493.1 L 1164.8 1492.7 L 1166 1492.3 L 1167.1 1491.9 L 1168.3 1491.4 L 1169.4 1490.9 L 1170.5 1490.3 L 1171.6 1489.7 L 1172.7 1489.1 L 1173.7 1488.5 L 1174.8 1487.8 L 1175.8 1487.1 L 1176.8 1486.4 L 1177.7 1485.6 L 1178.7 1484.8 L 1179.6 1483.9 L 1180.5 1483.1 L 1181.3 1482.2 L 1182.2 1481.3 L 1183 1480.3 L 1183.8 1479.4 L 1184.5 1478.4 L 1185.2 1477.4 L 1185.9 1476.3 L 1186.5 1475.3 L 1187.1 1474.2 L 1187.7 1473.1 L 1188.3 1472 L 1188.8 1470.9 L 1189.3 1469.7 L 1189.7 1468.6 L 1190.1 1467.4 L 1190.5 1466.2 L 1190.8 1465 L 1191.1 1463.8 L 1191.3 1462.6 L 1191.5 1461.4 L 1191.7 1460.2 L 1191.8 1459 L 1191.9 1457.7 L 1192 1456.5 L 1192 1455.2 L 1192 39.4 L 1192 38.1 L 1191.9 36.9 L 1191.8 35.7 L 1191.7 34.4 L 1191.5 33.2 L 1191.3 32 L 1191.1 30.8 L 1190.8 29.6 L 1190.5 28.4 L 1190.1 27.2 L 1189.7 26 L 1189.3 24.9 L 1188.8 23.7 L 1188.3 22.6 L 1187.7 21.5 L 1187.1 20.4 L 1186.5 19.3 L 1185.9 18.3 L 1185.2 17.2 L 1184.5 16.2 L 1183.8 15.2 L 1183 14.3 L 1182.2 13.3 L 1181.3 12.4 L 1180.5 11.5 L 1179.6 10.7 L 1178.7 9.8 L 1177.7 9 L 1176.8 8.3 L 1175.8 7.5 L 1174.8 6.8 L 1173.7 6.1 L 1172.7 5.5 L 1171.6 4.9 L 1170.5 4.3 L 1169.4 3.8 L 1168.3 3.2 L 1167.1 2.8 L 1166 2.3 L 1164.8 1.9 L 1163.6 1.6 L 1162.4 1.2 L 1161.2 1 L 1160 0.7 L 1158.8 0.5 L 1157.6 0.3 L 1156.3 0.2 L 1155.1 0.1 L 1153.9 0 L 1152.6 0 Z M 582 545 L 582 543.4 L 582.1 541.8 L 582.2 540.3 L 582.3 538.7 L 582.5 537.1 L 582.7 535.5 L 583 534 L 583.3 532.4 L 583.6 530.9 L 584 529.3 L 584.4 527.8 L 584.9 526.3 L 585.3 524.8 L 585.9 523.3 L 586.4 521.8 L 587 520.3 L 587.7 518.9 L 588.3 517.5 L 589.1 516.1 L 589.8 514.7 L 590.6 513.3 L 591.4 511.9 L 592.2 510.6 L 593.1 509.3 L 594 508 L 595 506.7 L 596 505.5 L 597 504.2 L 598 503.1 L 599.1 501.9 L 600.2 500.7 L 601.3 499.6 L 602.5 498.5 L 603.6 497.5 L 604.9 496.5 L 606.1 495.5 L 607.3 494.5 L 608.6 493.6 L 609.9 492.7 L 611.3 491.8 L 612.6 491 L 614 490.2 L 615.4 489.4 L 616.8 488.7 L 618.2 488 L 619.6 487.4 L 621.1 486.7 L 622.5 486.2 L 624 485.6 L 625.5 485.1 L 627.1 484.6 L 628.6 484.2 L 630.1 483.8 L 631.6 483.4 L 633.2 483.1 L 634.8 482.9 L 636.3 482.6 L 637.9 482.4 L 639.5 482.3 L 641 482.1 L 642.6 482 L 644.2 482 L 645.8 482 L 647.4 482 L 649 482.1 L 650.5 482.3 L 652.1 482.4 L 653.7 482.6 L 655.2 482.9 L 656.8 483.1 L 658.4 483.4 L 659.9 483.8 L 661.4 484.2 L 662.9 484.6 L 664.5 485.1 L 666 485.6 L 667.5 486.2 L 668.9 486.7 L 670.4 487.4 L 671.8 488 L 673.2 488.7 L 674.7 489.4 L 676 490.2 L 677.4 491 L 678.8 491.8 L 680.1 492.7 L 681.4 493.6 L 682.7 494.5 L 683.9 495.5 L 685.2 496.5 L 686.4 497.5 L 687.5 498.5 L 688.7 499.6 L 689.8 500.7 L 690.9 501.9 L 692 503.1 L 693 504.2 L 694 505.5 L 695 506.7 L 696 508 L 696.9 509.3 L 697.8 510.6 L 698.6 511.9 L 699.4 513.3 L 700.2 514.7 L 700.9 516.1 L 701.7 517.5 L 702.3 518.9 L 703 520.3 L 703.6 521.8 L 704.1 523.3 L 704.7 524.8 L 705.2 526.3 L 705.6 527.8 L 706 529.3 L 706.4 530.9 L 706.7 532.4 L 707 534 L 707.3 535.5 L 707.5 537.1 L 707.7 538.7 L 707.8 540.3 L 707.9 541.8 L 708 543.4 L 708 545 L 708 546.6 L 707.9 548.2 L 707.8 549.7 L 707.7 551.3 L 707.5 552.9 L 707.3 554.5 L 707 556 L 706.7 557.6 L 706.4 559.1 L 706 560.7 L 705.6 562.2 L 705.2 563.7 L 704.7 565.2 L 704.1 566.7 L 703.6 568.2 L 703 569.7 L 702.3 571.1 L 701.7 572.5 L 700.9 574 L 700.2 575.4 L 699.4 576.7 L 698.6 578.1 L 697.8 579.4 L 696.9 580.7 L 696 582 L 695 583.3 L 694 584.5 L 693 585.8 L 692 587 L 690.9 588.1 L 689.8 589.3 L 688.7 590.4 L 687.5 591.5 L 686.4 592.5 L 685.2 593.5 L 683.9 594.5 L 682.7 595.5 L 681.4 596.4 L 680.1 597.3 L 678.8 598.2 L 677.4 599 L 676 599.8 L 674.7 600.6 L 673.2 601.3 L 671.8 602 L 670.4 602.7 L 668.9 603.3 L 667.5 603.9 L 666 604.4 L 664.5 604.9 L 662.9 605.4 L 661.4 605.8 L 659.9 606.2 L 658.4 606.6 L 656.8 606.9 L 655.2 607.2 L 653.7 607.4 L 652.1 607.6 L 650.5 607.8 L 649 607.9 L 647.4 608 L 645.8 608 L 644.2 608 L 642.6 608 L 641 607.9 L 639.5 607.8 L 637.9 607.6 L 636.3 607.4 L 634.8 607.2 L 633.2 606.9 L 631.6 606.6 L 630.1 606.2 L 628.6 605.8 L 627.1 605.4 L 625.5 604.9 L 624 604.4 L 622.5 603.9 L 621.1 603.3 L 619.6 602.7 L 618.2 602 L 616.8 601.3 L 615.4 600.6 L 614 599.8 L 612.6 599 L 611.3 598.2 L 609.9 597.3 L 608.6 596.4 L 607.3 595.5 L 606.1 594.5 L 604.9 593.5 L 603.6 592.5 L 602.5 591.5 L 601.3 590.4 L 600.2 589.3 L 599.1 588.1 L 598 587 L 597 585.8 L 596 584.5 L 595 583.3 L 594 582 L 593.1 580.7 L 592.2 579.4 L 591.4 578.1 L 590.6 576.7 L 589.8 575.4 L 589.1 574 L 588.3 572.5 L 587.7 571.1 L 587 569.7 L 586.4 568.2 L 585.9 566.7 L 585.3 565.2 L 584.9 563.7 L 584.4 562.2 L 584 560.7 L 583.6 559.1 L 583.3 557.6 L 583 556 L 582.7 554.5 L 582.5 552.9 L 582.3 551.3 L 582.2 549.7 L 582.1 548.2 L 582 546.6 Z M 582 1145 L 582 1143.4 L 582.1 1141.8 L 582.2 1140.3 L 582.3 1138.7 L 582.5 1137.1 L 582.7 1135.5 L 583 1134 L 583.3 1132.4 L 583.6 1130.9 L 584 1129.3 L 584.4 1127.8 L 584.9 1126.3 L 585.3 1124.8 L 585.9 1123.3 L 586.4 1121.8 L 587 1120.4 L 587.7 1118.9 L 588.3 1117.5 L 589.1 1116.1 L 589.8 1114.7 L 590.6 1113.3 L 591.4 1111.9 L 592.2 1110.6 L 593.1 1109.3 L 594 1108 L 595 1106.7 L 596 1105.5 L 597 1104.2 L 598 1103.1 L 599.1 1101.9 L 600.2 1100.7 L 601.3 1099.6 L 602.5 1098.5 L 603.6 1097.5 L 604.9 1096.5 L 606.1 1095.5 L 607.3 1094.5 L 608.6 1093.6 L 609.9 1092.7 L 611.3 1091.8 L 612.6 1091 L 614 1090.2 L 615.4 1089.4 L 616.8 1088.7 L 618.2 1088 L 619.6 1087.3 L 621.1 1086.7 L 622.5 1086.2 L 624 1085.6 L 625.5 1085.1 L 627.1 1084.6 L 628.6 1084.2 L 630.1 1083.8 L 631.6 1083.4 L 633.2 1083.1 L 634.8 1082.9 L 636.3 1082.6 L 637.9 1082.4 L 639.5 1082.3 L 641 1082.1 L 642.6 1082.1 L 644.2 1082 L 645.8 1082 L 647.4 1082.1 L 649 1082.1 L 650.5 1082.3 L 652.1 1082.4 L 653.7 1082.6 L 655.2 1082.9 L 656.8 1083.1 L 658.4 1083.4 L 659.9 1083.8 L 661.4 1084.2 L 662.9 1084.6 L 664.5 1085.1 L 666 1085.6 L 667.5 1086.2 L 668.9 1086.7 L 670.4 1087.3 L 671.8 1088 L 673.2 1088.7 L 674.7 1089.4 L 676 1090.2 L 677.4 1091 L 678.8 1091.8 L 680.1 1092.7 L 681.4 1093.6 L 682.7 1094.5 L 683.9 1095.5 L 685.2 1096.5 L 686.4 1097.5 L 687.5 1098.5 L 688.7 1099.6 L 689.8 1100.7 L 690.9 1101.9 L 692 1103.1 L 693 1104.2 L 694 1105.5 L 695 1106.7 L 696 1108 L 696.9 1109.3 L 697.8 1110.6 L 698.6 1111.9 L 699.4 1113.3 L 700.2 1114.7 L 700.9 1116.1 L 701.7 1117.5 L 702.3 1118.9 L 703 1120.4 L 703.6 1121.8 L 704.1 1123.3 L 704.7 1124.8 L 705.2 1126.3 L 705.6 1127.8 L 706 1129.3 L 706.4 1130.9 L 706.7 1132.4 L 707 1134 L 707.3 1135.5 L 707.5 1137.1 L 707.7 1138.7 L 707.8 1140.3 L 707.9 1141.8 L 708 1143.4 L 708 1145 L 708 1146.6 L 707.9 1148.2 L 707.8 1149.7 L 707.7 1151.3 L 707.5 1152.9 L 707.3 1154.5 L 707 1156 L 706.7 1157.6 L 706.4 1159.1 L 706 1160.7 L 705.6 1162.2 L 705.2 1163.7 L 704.7 1165.2 L 704.1 1166.7 L 703.6 1168.2 L 703 1169.7 L 702.3 1171.1 L 701.7 1172.5 L 700.9 1174 L 700.2 1175.4 L 699.4 1176.7 L 698.6 1178.1 L 697.8 1179.4 L 696.9 1180.7 L 696 1182 L 695 1183.3 L 694 1184.5 L 693 1185.8 L 692 1187 L 690.9 1188.1 L 689.8 1189.3 L 688.7 1190.4 L 687.5 1191.5 L 686.4 1192.5 L 685.2 1193.5 L 683.9 1194.5 L 682.7 1195.5 L 681.4 1196.4 L 680.1 1197.3 L 678.8 1198.2 L 677.4 1199 L 676 1199.8 L 674.7 1200.6 L 673.2 1201.3 L 671.8 1202 L 670.4 1202.7 L 668.9 1203.3 L 667.5 1203.9 L 666 1204.4 L 664.5 1204.9 L 662.9 1205.4 L 661.4 1205.8 L 659.9 1206.2 L 658.4 1206.6 L 656.8 1206.9 L 655.2 1207.2 L 653.7 1207.4 L 652.1 1207.6 L 650.5 1207.8 L 649 1207.9 L 647.4 1208 L 645.8 1208 L 644.2 1208 L 642.6 1208 L 641 1207.9 L 639.5 1207.8 L 637.9 1207.6 L 636.3 1207.4 L 634.8 1207.2 L 633.2 1206.9 L 631.6 1206.6 L 630.1 1206.2 L 628.6 1205.8 L 627.1 1205.4 L 625.5 1204.9 L 624 1204.4 L 622.5 1203.9 L 621.1 1203.3 L 619.6 1202.7 L 618.2 1202 L 616.8 1201.3 L 615.4 1200.6 L 614 1199.8 L 612.6 1199 L 611.3 1198.2 L 609.9 1197.3 L 608.6 1196.4 L 607.3 1195.5 L 606.1 1194.5 L 604.9 1193.5 L 603.6 1192.5 L 602.5 1191.5 L 601.3 1190.4 L 600.2 1189.3 L 599.1 1188.1 L 598 1187 L 597 1185.8 L 596 1184.5 L 595 1183.3 L 594 1182 L 593.1 1180.7 L 592.2 1179.4 L 591.4 1178.1 L 590.6 1176.7 L 589.8 1175.4 L 589.1 1174 L 588.3 1172.5 L 587.7 1171.1 L 587 1169.7 L 586.4 1168.2 L 585.9 1166.7 L 585.3 1165.2 L 584.9 1163.7 L 584.4 1162.2 L 584 1160.7 L 583.6 1159.1 L 583.3 1157.6 L 583 1156 L 582.7 1154.5 L 582.5 1152.9 L 582.3 1151.3 L 582.2 1149.7 L 582.1 1148.2 L 582 1146.6 Z"/><g id="pcb_bottom-drl" fill="#000" stroke="#000"><use x="170" y="438.8" xlink:href="#tool-T10-pad-1000"/><use x="107.5" y="470" xlink:href="#tool-T10-pad-1000"/><use x="295" y="595" xlink:href="#tool-T10-pad-1000"/><use x="320" y="570" xlink:href="#tool-T10-pad-1000"/><use x="320" y="770" xlink:href="#tool-T10-pad-1000"/><use x="363.8" y="845" xlink:href="#tool-T10-pad-1000"/><use x="388.8" y="870" xlink:href="#tool-T10-pad-1000"/><use x="320" y="982.5" xlink:href="#tool-T10-pad-1000"/><use x="301.3" y="1082.5" xlink:href="#tool-T10-pad-1000"/><use x="388.8" y="1120" xlink:href="#tool-T10-pad-1000"/><use x="482.5" y="1201.3" xlink:href="#tool-T10-pad-1000"/><use x="520" y="1288.8" xlink:href="#tool-T10-pad-1000"/><use x="582.5" y="1213.8" xlink:href="#tool-T10-pad-1000"/><use x="520" y="1026.3" xlink:href="#tool-T10-pad-1000"/><use x="507.5" y="820" xlink:href="#tool-T10-pad-1000"/><use x="582.5" y="626.3" xlink:href="#tool-T10-pad-1000"/><use x="488.8" y="401.3" xlink:href="#tool-T10-pad-1000"/><use x="601.3" y="188.8" xlink:href="#tool-T10-pad-1000"/><use x="795" y="251.3" xlink:href="#tool-T10-pad-1000"/><use x="901.3" y="145" xlink:href="#tool-T10-pad-1000"/><use x="988.8" y="163.8" xlink:href="#tool-T10-pad-1000"/><use x="982.5" y="488.8" xlink:href="#tool-T10-pad-1000"/><use x="863.8" y="657.5" xlink:href="#tool-T10-pad-1000"/><use x="907.5" y="745" xlink:href="#tool-T10-pad-1000"/><use x="882.5" y="795" xlink:href="#tool-T10-pad-1000"/><use x="795" y="745" xlink:href="#tool-T10-pad-1000"/><use x="770" y="701.3" xlink:href="#tool-T10-pad-1000"/><use x="770" y="576.3" xlink:href="#tool-T10-pad-1000"/><use x="795" y="513.8" xlink:href="#tool-T10-pad-1000"/><use x="745" y="945" xlink:href="#tool-T10-pad-1000"/><use x="707.5" y="1288.8" xlink:href="#tool-T10-pad-1000"/><use x="1120" y="801.3" xlink:href="#tool-T10-pad-1000"/><use x="157.5" y="832.5" xlink:href="#tool-T10-pad-1000"/><use x="82.5" y="813.8" xlink:href="#tool-T10-pad-1000"/><use x="107.5" y="1020" xlink:href="#tool-T10-pad-1000"/><use x="132.5" y="1195" xlink:href="#tool-T10-pad-1000"/><use x="207.5" y="895" xlink:href="#tool-T11-pad-1001"/><use x="445" y="988.8" xlink:href="#tool-T11-pad-1001"/><use x="445" y="645" xlink:href="#tool-T11-pad-1001"/><use x="982.5" y="913.8" xlink:href="#tool-T11-pad-1001"/><use x="976.3" y="1095" xlink:href="#tool-T11-pad-1001"/><use x="1095" y="1295" xlink:href="#tool-T11-pad-1001"/><use x="45" y="45" xlink:href="#tool-T12-pad-1002"/><use x="45" y="145" xlink:href="#tool-T12-pad-1002"/><use x="45" y="245" xlink:href="#tool-T12-pad-1002"/><use x="45" y="345" xlink:href="#tool-T12-pad-1002"/><use x="45" y="445" xlink:href="#tool-T12-pad-1002"/><use x="45" y="545" xlink:href="#tool-T12-pad-1002"/><use x="45" y="645" xlink:href="#tool-T12-pad-1002"/><use x="45" y="745" xlink:href="#tool-T12-pad-1002"/><use x="45" y="845" xlink:href="#tool-T12-pad-1002"/><use x="45" y="945" xlink:href="#tool-T12-pad-1002"/><use x="45" y="1045" xlink:href="#tool-T12-pad-1002"/><use x="45" y="1145" xlink:href="#tool-T12-pad-1002"/><use x="45" y="1245" xlink:href="#tool-T12-pad-1002"/><use x="45" y="1345" xlink:href="#tool-T12-pad-1002"/><use x="45" y="1445" xlink:href="#tool-T12-pad-1002"/><use x="245" y="1445" xlink:href="#tool-T12-pad-1002"/><use x="245" y="1345" xlink:href="#tool-T12-pad-1002"/><use x="245" y="1245" xlink:href="#tool-T12-pad-1002"/><use x="245" y="1145" xlink:href="#tool-T12-pad-1002"/><use x="245" y="1045" xlink:href="#tool-T12-pad-1002"/><use x="245" y="945" xlink:href="#tool-T12-pad-1002"/><use x="245" y="845" xlink:href="#tool-T12-pad-1002"/><use x="245" y="745" xlink:href="#tool-T12-pad-1002"/><use x="245" y="645" xlink:href="#tool-T12-pad-1002"/><use x="245" y="545" xlink:href="#tool-T12-pad-1002"/><use x="245" y="445" xlink:href="#tool-T12-pad-1002"/><use x="245" y="345" xlink:href="#tool-T12-pad-1002"/><use x="245" y="245" xlink:href="#tool-T12-pad-1002"/><use x="245" y="145" xlink:href="#tool-T12-pad-1002"/><use x="245" y="45" xlink:href="#tool-T12-pad-1002"/><use x="1045" y="45" xlink:href="#tool-T12-pad-1002"/><use x="1045" y="145" xlink:href="#tool-T12-pad-1002"/><use x="1045" y="245" xlink:href="#tool-T12-pad-1002"/><use x="1045" y="345" xlink:href="#tool-T12-pad-1002"/><use x="1045" y="445" xlink:href="#tool-T12-pad-1002"/><use x="1045" y="545" xlink:href="#tool-T12-pad-1002"/><use x="1045" y="645" xlink:href="#tool-T12-pad-1002"/><use x="1045" y="745" xlink:href="#tool-T12-pad-1002"/><use x="1045" y="845" xlink:href="#tool-T12-pad-1002"/><use x="1045" y="945" xlink:href="#tool-T12-pad-1002"/><use x="1045" y="1045" xlink:href="#tool-T12-pad-1002"/><use x="1045" y="1145" xlink:href="#tool-T12-pad-1002"/><use x="1045" y="1245" xlink:href="#tool-T12-pad-1002"/><use x="1045" y="1345" xlink:href="#tool-T12-pad-1002"/><use x="1045" y="1445" xlink:href="#tool-T12-pad-1002"/><use x="1145" y="1445" xlink:href="#tool-T12-pad-1002"/><use x="1145" y="1345" xlink:href="#tool-T12-pad-1002"/><use x="1145" y="1245" xlink:href="#tool-T12-pad-1002"/><use x="1145" y="1145" xlink:href="#tool-T12-pad-1002"/><use x="1145" y="1045" xlink:href="#tool-T12-pad-1002"/><use x="1145" y="945" xlink:href="#tool-T12-pad-1002"/><use x="1145" y="845" xlink:href="#tool-T12-pad-1002"/><use x="1145" y="745" xlink:href="#tool-T12-pad-1002"/><use x="1145" y="645" xlink:href="#tool-T12-pad-1002"/><use x="1145" y="545" xlink:href="#tool-T12-pad-1002"/><use x="1145" y="445" xlink:href="#tool-T12-pad-1002"/><use x="1145" y="345" xlink:href="#tool-T12-pad-1002"/><use x="1145" y="245" xlink:href="#tool-T12-pad-1002"/><use x="1145" y="145" xlink:href="#tool-T12-pad-1002"/><use x="1145" y="45" xlink:href="#tool-T12-pad-1002"/><use x="945" y="245" xlink:href="#tool-T13-pad-1003"/><use x="945" y="345" xlink:href="#tool-T13-pad-1003"/><use x="845" y="345" xlink:href="#tool-T13-pad-1003"/><use x="845" y="245" xlink:href="#tool-T13-pad-1003"/><use x="745" y="245" xlink:href="#tool-T13-pad-1003"/><use x="745" y="345" xlink:href="#tool-T13-pad-1003"/><use x="645" y="345" xlink:href="#tool-T13-pad-1003"/><use x="645" y="245" xlink:href="#tool-T13-pad-1003"/><use x="545" y="245" xlink:href="#tool-T13-pad-1003"/><use x="545" y="345" xlink:href="#tool-T13-pad-1003"/><use x="445" y="345" xlink:href="#tool-T13-pad-1003"/><use x="445" y="245" xlink:href="#tool-T13-pad-1003"/><use x="345" y="245" xlink:href="#tool-T13-pad-1003"/><use x="345" y="345" xlink:href="#tool-T13-pad-1003"/><use x="345" y="1345" xlink:href="#tool-T13-pad-1003"/><use x="345" y="1445" xlink:href="#tool-T13-pad-1003"/><use x="445" y="1445" xlink:href="#tool-T13-pad-1003"/><use x="445" y="1345" xlink:href="#tool-T13-pad-1003"/><use x="545" y="1345" xlink:href="#tool-T13-pad-1003"/><use x="545" y="1445" xlink:href="#tool-T13-pad-1003"/><use x="645" y="1445" xlink:href="#tool-T13-pad-1003"/><use x="645" y="1345" xlink:href="#tool-T13-pad-1003"/><use x="745" y="1345" xlink:href="#tool-T13-pad-1003"/><use x="745" y="1445" xlink:href="#tool-T13-pad-1003"/><use x="845" y="1445" xlink:href="#tool-T13-pad-1003"/><use x="845" y="1345" xlink:href="#tool-T13-pad-1003"/><use x="945" y="1345" xlink:href="#tool-T13-pad-1003"/><use x="945" y="1445" xlink:href="#tool-T13-pad-1003"/><use x="645" y="1145" xlink:href="#tool-T14-pad-1004"/><use x="645" y="545" xlink:href="#tool-T14-pad-1004"/></g></mask></defs><g mask="url(#pcb_bottom_mech-mask)" transform="translate(1192,1494.6) scale(-1,-1)"><rect x="0" y="0" width="1192" height="1494.6" fill="currentColor" class="pcb_board-fr4"/><use class="pcb_board-cu" xlink:href="#pcb_bottom-cu"/><g><defs><g id="pcb_bottom-sm" fill="currentColor" stroke="currentColor"><use x="645" y="545" xlink:href="#tool-D10-pad-1014"/><use x="645" y="1145" xlink:href="#tool-D10-pad-1014"/><use x="45" y="45" xlink:href="#tool-D11-pad-1015"/><use x="45" y="145" xlink:href="#tool-D11-pad-1015"/><use x="45" y="245" xlink:href="#tool-D11-pad-1015"/><use x="45" y="345" xlink:href="#tool-D11-pad-1015"/><use x="45" y="445" xlink:href="#tool-D11-pad-1015"/><use x="45" y="545" xlink:href="#tool-D11-pad-1015"/><use x="45" y="645" xlink:href="#tool-D11-pad-1015"/><use x="45" y="745" xlink:href="#tool-D11-pad-1015"/><use x="45" y="845" xlink:href="#tool-D11-pad-1015"/><use x="45" y="945" xlink:href="#tool-D11-pad-1015"/><use x="45" y="1045" xlink:href="#tool-D11-pad-1015"/><use x="45" y="1145" xlink:href="#tool-D11-pad-1015"/><use x="45" y="1245" xlink:href="#tool-D11-pad-1015"/><use x="45" y="1345" xlink:href="#tool-D11-pad-1015"/><use x="45" y="1445" xlink:href="#tool-D11-pad-1015"/><use x="245" y="1445" xlink:href="#tool-D11-pad-1015"/><use x="245" y="1345" xlink:href="#tool-D11-pad-1015"/><use x="245" y="1245" xlink:href="#tool-D11-pad-1015"/><use x="245" y="1145" xlink:href="#tool-D11-pad-1015"/><use x="245" y="1045" xlink:href="#tool-D11-pad-1015"/><use x="245" y="945" xlink:href="#tool-D11-pad-1015"/><use x="245" y="845" xlink:href="#tool-D11-pad-1015"/><use x="245" y="745" xlink:href="#tool-D11-pad-1015"/><use x="245" y="645" xlink:href="#tool-D11-pad-1015"/><use x="245" y="545" xlink:href="#tool-D11-pad-1015"/><use x="245" y="445" xlink:href="#tool-D11-pad-1015"/><use x="245" y="345" xlink:href="#tool-D11-pad-1015"/><use x="245" y="245" xlink:href="#tool-D11-pad-1015"/><use x="245" y="145" xlink:href="#tool-D11-pad-1015"/><use x="245" y="45" xlink:href="#tool-D11-pad-1015"/><use x="1045" y="45" xlink:href="#tool-D11-pad-1015"/><use x="1045" y="145" xlink:href="#tool-D11-pad-1015"/><use x="1045" y="245" xlink:href="#tool-D11-pad-1015"/><use x="1045" y="345" xlink:href="#tool-D11-pad-1015"/><use x="1045" y="445" xlink:href="#tool-D11-pad-1015"/><use x="1045" y="545" xlink:href="#tool-D11-pad-1015"/><use x="1045" y="645" xlink:href="#tool-D11-pad-1015"/><use x="1045" y="745" xlink:href="#tool-D11-pad-1015"/><use x="1045" y="845" xlink:href="#tool-D11-pad-1015"/><use x="1045" y="945" xlink:href="#tool-D11-pad-1015"/><use x="1045" y="1045" xlink:href="#tool-D11-pad-1015"/><use x="1045" y="1145" xlink:href="#tool-D11-pad-1015"/><use x="1045" y="1245" xlink:href="#tool-D11-pad-1015"/><use x="1045" y="1345" xlink:href="#tool-D11-pad-1015"/><use x="1045" y="1445" xlink:href="#tool-D11-pad-1015"/><use x="1145" y="1445" xlink:href="#tool-D11-pad-1015"/><use x="1145" y="1345" xlink:href="#tool-D11-pad-1015"/><use x="1145" y="1245" xlink:href="#tool-D11-pad-1015"/><use x="1145" y="1145" xlink:href="#tool-D11-pad-1015"/><use x="1145" y="1045" xlink:href="#tool-D11-pad-1015"/><use x="1145" y="945" xlink:href="#tool-D11-pad-1015"/><use x="1145" y="845" xlink:href="#tool-D11-pad-1015"/><use x="1145" y="745" xlink:href="#tool-D11-pad-1015"/><use x="1145" y="645" xlink:href="#tool-D11-pad-1015"/><use x="1145" y="545" xlink:href="#tool-D11-pad-1015"/><use x="1145" y="445" xlink:href="#tool-D11-pad-1015"/><use x="1145" y="345" xlink:href="#tool-D11-pad-1015"/><use x="1145" y="245" xlink:href="#tool-D11-pad-1015"/><use x="1145" y="145" xlink:href="#tool-D11-pad-1015"/><use x="1145" y="45" xlink:href="#tool-D11-pad-1015"/><use x="945" y="245" xlink:href="#tool-D12-pad-1016"/><use x="945" y="345" xlink:href="#tool-D12-pad-1016"/><use x="845" y="345" xlink:href="#tool-D12-pad-1016"/><use x="845" y="245" xlink:href="#tool-D12-pad-1016"/><use x="745" y="245" xlink:href="#tool-D12-pad-1016"/><use x="745" y="345" xlink:href="#tool-D12-pad-1016"/><use x="645" y="345" xlink:href="#tool-D12-pad-1016"/><use x="645" y="245" xlink:href="#tool-D12-pad-1016"/><use x="545" y="245" xlink:href="#tool-D12-pad-1016"/><use x="545" y="345" xlink:href="#tool-D12-pad-1016"/><use x="445" y="345" xlink:href="#tool-D12-pad-1016"/><use x="445" y="245" xlink:href="#tool-D12-pad-1016"/><use x="345" y="245" xlink:href="#tool-D12-pad-1016"/><use x="345" y="345" xlink:href="#tool-D12-pad-1016"/><use x="345" y="1345" xlink:href="#tool-D12-pad-1016"/><use x="345" y="1445" xlink:href="#tool-D12-pad-1016"/><use x="445" y="1445" xlink:href="#tool-D12-pad-1016"/><use x="445" y="1345" xlink:href="#tool-D12-pad-1016"/><use x="545" y="1345" xlink:href="#tool-D12-pad-1016"/><use x="545" y="1445" xlink:href="#tool-D12-pad-1016"/><use x="645" y="1445" xlink:href="#tool-D12-pad-1016"/><use x="645" y="1345" xlink:href="#tool-D12-pad-1016"/><use x="745" y="1345" xlink:href="#tool-D12-pad-1016"/><use x="745" y="1445" xlink:href="#tool-D12-pad-1016"/><use x="845" y="1445" xlink:href="#tool-D12-pad-1016"/><use x="845" y="1345" xlink:href="#tool-D12-pad-1016"/><use x="945" y="1345" xlink:href="#tool-D12-pad-1016"/><use x="945" y="1445" xlink:href="#tool-D12-pad-1016"/><use x="1095" y="1295" xlink:href="#tool-D13-pad-1017"/><use x="976.3" y="1095" xlink:href="#tool-D13-pad-1017"/><use x="982.5" y="913.8" xlink:href="#tool-D13-pad-1017"/><use x="445" y="988.8" xlink:href="#tool-D13-pad-1017"/><use x="445" y="645" xlink:href="#tool-D13-pad-1017"/><use x="207.5" y="895" xlink:href="#tool-D13-pad-1017"/><use x="157.5" y="832.5" xlink:href="#tool-D14-pad-1018"/><use x="82.5" y="813.8" xlink:href="#tool-D14-pad-1018"/><use x="107.5" y="1020" xlink:href="#tool-D14-pad-1018"/><use x="132.5" y="1195" xlink:href="#tool-D14-pad-1018"/><use x="301.3" y="1082.5" xlink:href="#tool-D14-pad-1018"/><use x="320" y="982.5" xlink:href="#tool-D14-pad-1018"/><use x="388.8" y="870" xlink:href="#tool-D14-pad-1018"/><use x="363.8" y="845" xlink:href="#tool-D14-pad-1018"/><use x="320" y="770" xlink:href="#tool-D14-pad-1018"/><use x="295" y="595" xlink:href="#tool-D14-pad-1018"/><use x="320" y="570" xlink:href="#tool-D14-pad-1018"/><use x="170" y="438.7" xlink:href="#tool-D14-pad-1018"/><use x="107.5" y="470" xlink:href="#tool-D14-pad-1018"/><use x="488.8" y="401.3" xlink:href="#tool-D14-pad-1018"/><use x="601.3" y="188.8" xlink:href="#tool-D14-pad-1018"/><use x="795" y="251.3" xlink:href="#tool-D14-pad-1018"/><use x="901.3" y="145" xlink:href="#tool-D14-pad-1018"/><use x="988.8" y="163.8" xlink:href="#tool-D14-pad-1018"/><use x="982.5" y="488.8" xlink:href="#tool-D14-pad-1018"/><use x="863.8" y="657.5" xlink:href="#tool-D14-pad-1018"/><use x="907.5" y="745" xlink:href="#tool-D14-pad-1018"/><use x="882.5" y="795" xlink:href="#tool-D14-pad-1018"/><use x="795" y="745" xlink:href="#tool-D14-pad-1018"/><use x="770" y="701.3" xlink:href="#tool-D14-pad-1018"/><use x="770" y="576.3" xlink:href="#tool-D14-pad-1018"/><use x="795" y="513.8" xlink:href="#tool-D14-pad-1018"/><use x="582.5" y="626.3" xlink:href="#tool-D14-pad-1018"/><use x="507.5" y="820" xlink:href="#tool-D14-pad-1018"/><use x="520" y="1026.3" xlink:href="#tool-D14-pad-1018"/><use x="482.5" y="1201.3" xlink:href="#tool-D14-pad-1018"/><use x="520" y="1288.8" xlink:href="#tool-D14-pad-1018"/><use x="582.5" y="1213.8" xlink:href="#tool-D14-pad-1018"/><use x="707.5" y="1288.8" xlink:href="#tool-D14-pad-1018"/><use x="745" y="945" xlink:href="#tool-D14-pad-1018"/><use x="388.8" y="1120" xlink:href="#tool-D14-pad-1018"/><use x="1120" y="801.3" xlink:href="#tool-D14-pad-1018"/></g><mask id="pcb_bottom-sm_mask" color="#000"><rect x="0" y="0" width="1192" height="1494.6" fill="#fff"/><use xlink:href="#pcb_bottom-sm"/></mask><mask id="pcb_bottom-cu_finish-mask" color="#fff"><use xlink:href="#pcb_bottom-cu"/></mask></defs><g mask="url(#pcb_bottom-sm_mask)"><rect x="0" y="0" width="1192" height="1494.6" fill="currentColor" class="pcb_board-sm"/><g id="pcb_bottom-ss" class="pcb_board-ss" fill="currentColor" stroke="currentColor"><path stroke-width="0" fill="none" d="M 39.4 0 L 1152.6 0 M 1152.6 0 L 1153.9 0 M 1153.9 0 L 1155.1 0.1 M 1155.1 0.1 L 1156.3 0.2 M 1156.3 0.2 L 1157.6 0.3 M 1157.6 0.3 L 1158.8 0.5 M 1158.8 0.5 L 1160 0.7 M 1160 0.7 L 1161.2 1 M 1161.2 1 L 1162.4 1.2 M 1162.4 1.2 L 1163.6 1.6 M 1163.6 1.6 L 1164.8 1.9 M 1164.8 1.9 L 1166 2.3 M 1166 2.3 L 1167.1 2.8 M 1167.1 2.8 L 1168.3 3.2 M 1168.3 3.2 L 1169.4 3.8 M 1169.4 3.8 L 1170.5 4.3 M 1170.5 4.3 L 1171.6 4.9 M 1171.6 4.9 L 1172.7 5.5 M 1172.7 5.5 L 1173.7 6.1 M 1173.7 6.1 L 1174.8 6.8 M 1174.8 6.8 L 1175.8 7.5 M 1175.8 7.5 L 1176.8 8.3 M 1176.8 8.3 L 1177.7 9 M 1177.7 9 L 1178.7 9.8 M 1178.7 9.8 L 1179.6 10.7 M 1179.6 10.7 L 1180.5 11.5 M 1180.5 11.5 L 1181.3 12.4 M 1181.3 12.4 L 1182.2 13.3 M 1182.2 13.3 L 1183 14.3 M 1183 14.3 L 1183.8 15.2 M 1183.8 15.2 L 1184.5 16.2 M 1184.5 16.2 L 1185.2 17.2 M 1185.2 17.2 L 1185.9 18.3 M 1185.9 18.3 L 1186.5 19.3 M 1186.5 19.3 L 1187.1 20.4 M 1187.1 20.4 L 1187.7 21.5 M 1187.7 21.5 L 1188.3 22.6 M 1188.3 22.6 L 1188.8 23.7 M 1188.8 23.7 L 1189.3 24.9 M 1189.3 24.9 L 1189.7 26 M 1189.7 26 L 1190.1 27.2 M 1190.1 27.2 L 1190.5 28.4 M 1190.5 28.4 L 1190.8 29.6 M 1190.8 29.6 L 1191.1 30.8 M 1191.1 30.8 L 1191.3 32 M 1191.3 32 L 1191.5 33.2 M 1191.5 33.2 L 1191.7 34.4 M 1191.7 34.4 L 1191.8 35.7 M 1191.8 35.7 L 1191.9 36.9 M 1191.9 36.9 L 1192 38.1 M 1192 38.1 L 1192 39.4 M 1192 39.4 L 1192 1455.2 M 1192 1455.2 L 1192 1456.5 M 1192 1456.5 L 1191.9 1457.7 M 1191.9 1457.7 L 1191.8 1459 M 1191.8 1459 L 1191.7 1460.2 M 1191.7 1460.2 L 1191.5 1461.4 M 1191.5 1461.4 L 1191.3 1462.6 M 1191.3 1462.6 L 1191.1 1463.8 M 1191.1 1463.8 L 1190.8 1465 M 1190.8 1465 L 1190.5 1466.2 M 1190.5 1466.2 L 1190.1 1467.4 M 1190.1 1467.4 L 1189.7 1468.6 M 1189.7 1468.6 L 1189.3 1469.7 M 1189.3 1469.7 L 1188.8 1470.9 M 1188.8 1470.9 L 1188.3 1472 M 1188.3 1472 L 1187.7 1473.1 M 1187.7 1473.1 L 1187.1 1474.2 M 1187.1 1474.2 L 1186.5 1475.3 M 1186.5 1475.3 L 1185.9 1476.3 M 1185.9 1476.3 L 1185.2 1477.4 M 1185.2 1477.4 L 1184.5 1478.4 M 1184.5 1478.4 L 1183.8 1479.4 M 1183.8 1479.4 L 1183 1480.3 M 1183 1480.3 L 1182.2 1481.3 M 1182.2 1481.3 L 1181.3 1482.2 M 1181.3 1482.2 L 1180.5 1483.1 M 1180.5 1483.1 L 1179.6 1483.9 M 1179.6 1483.9 L 1178.7 1484.8 M 1178.7 1484.8 L 1177.7 1485.6 M 1177.7 1485.6 L 1176.8 1486.4 M 1176.8 1486.4 L 1175.8 1487.1 M 1175.8 1487.1 L 1174.8 1487.8 M 1174.8 1487.8 L 1173.7 1488.5 M 1173.7 1488.5 L 1172.7 1489.1 M 1172.7 1489.1 L 1171.6 1489.7 M 1171.6 1489.7 L 1170.5 1490.3 M 1170.5 1490.3 L 1169.4 1490.9 M 1169.4 1490.9 L 1168.3 1491.4 M 1168.3 1491.4 L 1167.1 1491.9 M 1167.1 1491.9 L 1166 1492.3 M 1166 1492.3 L 1164.8 1492.7 M 1164.8 1492.7 L 1163.6 1493.1 M 1163.6 1493.1 L 1162.4 1493.4 M 1162.4 1493.4 L 1161.2 1493.7 M 1161.2 1493.7 L 1160 1493.9 M 1160 1493.9 L 1158.8 1494.1 M 1158.8 1494.1 L 1157.6 1494.3 M 1157.6 1494.3 L 1156.3 1494.4 M 1156.3 1494.4 L 1155.1 1494.5 M 1155.1 1494.5 L 1153.9 1494.6 M 1153.9 1494.6 L 1152.6 1494.6 M 1152.6 1494.6 L 39.4 1494.6 M 39.4 1494.6 L 38.1 1494.6 M 38.1 1494.6 L 36.9 1494.5 M 36.9 1494.5 L 35.7 1494.4 M 35.7 1494.4 L 34.4 1494.3 M 34.4 1494.3 L 33.2 1494.1 M 33.2 1494.1 L 32 1493.9 M 32 1493.9 L 30.8 1493.7 M 30.8 1493.7 L 29.6 1493.4 M 29.6 1493.4 L 28.4 1493.1 M 28.4 1493.1 L 27.2 1492.7 M 27.2 1492.7 L 26 1492.3 M 26 1492.3 L 24.9 1491.9 M 24.9 1491.9 L 23.7 1491.4 M 23.7 1491.4 L 22.6 1490.9 M 22.6 1490.9 L 21.5 1490.3 M 21.5 1490.3 L 20.4 1489.7 M 20.4 1489.7 L 19.3 1489.1 M 19.3 1489.1 L 18.3 1488.5 M 18.3 1488.5 L 17.2 1487.8 M 17.2 1487.8 L 16.2 1487.1 M 16.2 1487.1 L 15.2 1486.4 M 15.2 1486.4 L 14.3 1485.6 M 14.3 1485.6 L 13.3 1484.8 M 13.3 1484.8 L 12.4 1483.9 M 12.4 1483.9 L 11.5 1483.1 M 11.5 1483.1 L 10.7 1482.2 M 10.7 1482.2 L 9.8 1481.3 M 9.8 1481.3 L 9 1480.3 M 9 1480.3 L 8.3 1479.4 M 8.3 1479.4 L 7.5 1478.4 M 7.5 1478.4 L 6.8 1477.4 M 6.8 1477.4 L 6.1 1476.3 M 6.1 1476.3 L 5.5 1475.3 M 5.5 1475.3 L 4.9 1474.2 M 4.9 1474.2 L 4.3 1473.1 M 4.3 1473.1 L 3.8 1472 M 3.8 1472 L 3.2 1470.9 M 3.2 1470.9 L 2.8 1469.7 M 2.8 1469.7 L 2.3 1468.6 M 2.3 1468.6 L 1.9 1467.4 M 1.9 1467.4 L 1.6 1466.2 M 1.6 1466.2 L 1.2 1465 M 1.2 1465 L 1 1463.8 M 1 1463.8 L 0.7 1462.6 M 0.7 1462.6 L 0.5 1461.4 M 0.5 1461.4 L 0.3 1460.2 M 0.3 1460.2 L 0.2 1459 M 0.2 1459 L 0.1 1457.7 M 0.1 1457.7 L 0 1456.5 M 0 1456.5 L 0 1455.2 M 0 1455.2 L 0 39.4 M 0 39.4 L 0 38.1 M 0 38.1 L 0.1 36.9 M 0.1 36.9 L 0.2 35.7 M 0.2 35.7 L 0.3 34.4 M 0.3 34.4 L 0.5 33.2 M 0.5 33.2 L 0.7 32 M 0.7 32 L 1 30.8 M 1 30.8 L 1.2 29.6 M 1.2 29.6 L 1.6 28.4 M 1.6 28.4 L 1.9 27.2 M 1.9 27.2 L 2.3 26 M 2.3 26 L 2.8 24.9 M 2.8 24.9 L 3.2 23.7 M 3.2 23.7 L 3.8 22.6 M 3.8 22.6 L 4.3 21.5 M 4.3 21.5 L 4.9 20.4 M 4.9 20.4 L 5.5 19.3 M 5.5 19.3 L 6.1 18.3 M 6.1 18.3 L 6.8 17.2 M 6.8 17.2 L 7.5 16.2 M 7.5 16.2 L 8.3 15.2 M 8.3 15.2 L 9 14.3 M 9 14.3 L 9.8 13.3 M 9.8 13.3 L 10.7 12.4 M 10.7 12.4 L 11.5 11.5 M 11.5 11.5 L 12.4 10.7 M 12.4 10.7 L 13.3 9.8 M 13.3 9.8 L 14.3 9 M 14.3 9 L 15.2 8.3 M 15.2 8.3 L 16.2 7.5 M 16.2 7.5 L 17.2 6.8 M 17.2 6.8 L 18.3 6.1 M 18.3 6.1 L 19.3 5.5 M 19.3 5.5 L 20.4 4.9 M 20.4 4.9 L 21.5 4.3 M 21.5 4.3 L 22.6 3.8 M 22.6 3.8 L 23.7 3.2 M 23.7 3.2 L 24.9 2.8 M 24.9 2.8 L 26 2.3 M 26 2.3 L 27.2 1.9 M 27.2 1.9 L 28.4 1.6 M 28.4 1.6 L 29.6 1.2 M 29.6 1.2 L 30.8 1 M 30.8 1 L 32 0.7 M 32 0.7 L 33.2 0.5 M 33.2 0.5 L 34.4 0.3 M 34.4 0.3 L 35.7 0.2 M 35.7 0.2 L 36.9 0.1 M 36.9 0.1 L 38.1 0 M 38.1 0 L 39.4 0 M 582 545 L 582 546.6 M 582 546.6 L 582.1 548.2 M 582.1 548.2 L 582.2 549.7 M 582.2 549.7 L 582.3 551.3 M 582.3 551.3 L 582.5 552.9 M 582.5 552.9 L 582.7 554.5 M 582.7 554.5 L 583 556 M 583 556 L 583.3 557.6 M 583.3 557.6 L 583.6 559.1 M 583.6 559.1 L 584 560.7 M 584 560.7 L 584.4 562.2 M 584.4 562.2 L 584.9 563.7 M 584.9 563.7 L 585.3 565.2 M 585.3 565.2 L 585.9 566.7 M 585.9 566.7 L 586.4 568.2 M 586.4 568.2 L 587 569.7 M 587 569.7 L 587.7 571.1 M 587.7 571.1 L 588.3 572.5 M 588.3 572.5 L 589.1 574 M 589.1 574 L 589.8 575.4 M 589.8 575.4 L 590.6 576.7 M 590.6 576.7 L 591.4 578.1 M 591.4 578.1 L 592.2 579.4 M 592.2 579.4 L 593.1 580.7 M 593.1 580.7 L 594 582 M 594 582 L 595 583.3 M 595 583.3 L 596 584.5 M 596 584.5 L 597 585.8 M 597 585.8 L 598 587 M 598 587 L 599.1 588.1 M 599.1 588.1 L 600.2 589.3 M 600.2 589.3 L 601.3 590.4 M 601.3 590.4 L 602.5 591.5 M 602.5 591.5 L 603.6 592.5 M 603.6 592.5 L 604.9 593.5 M 604.9 593.5 L 606.1 594.5 M 606.1 594.5 L 607.3 595.5 M 607.3 595.5 L 608.6 596.4 M 608.6 596.4 L 609.9 597.3 M 609.9 597.3 L 611.3 598.2 M 611.3 598.2 L 612.6 599 M 612.6 599 L 614 599.8 M 614 599.8 L 615.4 600.6 M 615.4 600.6 L 616.8 601.3 M 616.8 601.3 L 618.2 602 M 618.2 602 L 619.6 602.7 M 619.6 602.7 L 621.1 603.3 M 621.1 603.3 L 622.5 603.9 M 622.5 603.9 L 624 604.4 M 624 604.4 L 625.5 604.9 M 625.5 604.9 L 627.1 605.4 M 627.1 605.4 L 628.6 605.8 M 628.6 605.8 L 630.1 606.2 M 630.1 606.2 L 631.6 606.6 M 631.6 606.6 L 633.2 606.9 M 633.2 606.9 L 634.8 607.2 M 634.8 607.2 L 636.3 607.4 M 636.3 607.4 L 637.9 607.6 M 637.9 607.6 L 639.5 607.8 M 639.5 607.8 L 641 607.9 M 641 607.9 L 642.6 608 M 642.6 608 L 644.2 608 M 644.2 608 L 645.8 608 M 645.8 608 L 647.4 608 M 647.4 608 L 649 607.9 M 649 607.9 L 650.5 607.8 M 650.5 607.8 L 652.1 607.6 M 652.1 607.6 L 653.7 607.4 M 653.7 607.4 L 655.2 607.2 M 655.2 607.2 L 656.8 606.9 M 656.8 606.9 L 658.4 606.6 M 658.4 606.6 L 659.9 606.2 M 659.9 606.2 L 661.4 605.8 M 661.4 605.8 L 662.9 605.4 M 662.9 605.4 L 664.5 604.9 M 664.5 604.9 L 666 604.4 M 666 604.4 L 667.5 603.9 M 667.5 603.9 L 668.9 603.3 M 668.9 603.3 L 670.4 602.7 M 670.4 602.7 L 671.8 602 M 671.8 602 L 673.2 601.3 M 673.2 601.3 L 674.7 600.6 M 674.7 600.6 L 676 599.8 M 676 599.8 L 677.4 599 M 677.4 599 L 678.8 598.2 M 678.8 598.2 L 680.1 597.3 M 680.1 597.3 L 681.4 596.4 M 681.4 596.4 L 682.7 595.5 M 682.7 595.5 L 683.9 594.5 M 683.9 594.5 L 685.2 593.5 M 685.2 593.5 L 686.4 592.5 M 686.4 592.5 L 687.5 591.5 M 687.5 591.5 L 688.7 590.4 M 688.7 590.4 L 689.8 589.3 M 689.8 589.3 L 690.9 588.1 M 690.9 588.1 L 692 587 M 692 587 L 693 585.8 M 693 585.8 L 694 584.5 M 694 584.5 L 695 583.3 M 695 583.3 L 696 582 M 696 582 L 696.9 580.7 M 696.9 580.7 L 697.8 579.4 M 697.8 579.4 L 698.6 578.1 M 698.6 578.1 L 699.4 576.7 M 699.4 576.7 L 700.2 575.4 M 700.2 575.4 L 700.9 574 M 700.9 574 L 701.7 572.5 M 701.7 572.5 L 702.3 571.1 M 702.3 571.1 L 703 569.7 M 703 569.7 L 703.6 568.2 M 703.6 568.2 L 704.1 566.7 M 704.1 566.7 L 704.7 565.2 M 704.7 565.2 L 705.2 563.7 M 705.2 563.7 L 705.6 562.2 M 705.6 562.2 L 706 560.7 M 706 560.7 L 706.4 559.1 M 706.4 559.1 L 706.7 557.6 M 706.7 557.6 L 707 556 M 707 556 L 707.3 554.5 M 707.3 554.5 L 707.5 552.9 M 707.5 552.9 L 707.7 551.3 M 707.7 551.3 L 707.8 549.7 M 707.8 549.7 L 707.9 548.2 M 707.9 548.2 L 708 546.6 M 708 546.6 L 708 545 M 708 545 L 708 543.4 M 708 543.4 L 707.9 541.8 M 707.9 541.8 L 707.8 540.3 M 707.8 540.3 L 707.7 538.7 M 707.7 538.7 L 707.5 537.1 M 707.5 537.1 L 707.3 535.5 M 707.3 535.5 L 707 534 M 707 534 L 706.7 532.4 M 706.7 532.4 L 706.4 530.9 M 706.4 530.9 L 706 529.3 M 706 529.3 L 705.6 527.8 M 705.6 527.8 L 705.2 526.3 M 705.2 526.3 L 704.7 524.8 M 704.7 524.8 L 704.1 523.3 M 704.1 523.3 L 703.6 521.8 M 703.6 521.8 L 703 520.3 M 703 520.3 L 702.3 518.9 M 702.3 518.9 L 701.7 517.5 M 701.7 517.5 L 700.9 516.1 M 700.9 516.1 L 700.2 514.7 M 700.2 514.7 L 699.4 513.3 M 699.4 513.3 L 698.6 511.9 M 698.6 511.9 L 697.8 510.6 M 697.8 510.6 L 696.9 509.3 M 696.9 509.3 L 696 508 M 696 508 L 695 506.7 M 695 506.7 L 694 505.5 M 694 505.5 L 693 504.2 M 693 504.2 L 692 503.1 M 692 503.1 L 690.9 501.9 M 690.9 501.9 L 689.8 500.7 M 689.8 500.7 L 688.7 499.6 M 688.7 499.6 L 687.5 498.5 M 687.5 498.5 L 686.4 497.5 M 686.4 497.5 L 685.2 496.5 M 685.2 496.5 L 683.9 495.5 M 683.9 495.5 L 682.7 494.5 M 682.7 494.5 L 681.4 493.6 M 681.4 493.6 L 680.1 492.7 M 680.1 492.7 L 678.8 491.8 M 678.8 491.8 L 677.4 491 M 677.4 491 L 676 490.2 M 676 490.2 L 674.7 489.4 M 674.7 489.4 L 673.2 488.7 M 673.2 488.7 L 671.8 488 M 671.8 488 L 670.4 487.4 M 670.4 487.4 L 668.9 486.7 M 668.9 486.7 L 667.5 486.2 M 667.5 486.2 L 666 485.6 M 666 485.6 L 664.5 485.1 M 664.5 485.1 L 662.9 484.6 M 662.9 484.6 L 661.4 484.2 M 661.4 484.2 L 659.9 483.8 M 659.9 483.8 L 658.4 483.4 M 658.4 483.4 L 656.8 483.1 M 656.8 483.1 L 655.2 482.9 M 655.2 482.9 L 653.7 482.6 M 653.7 482.6 L 652.1 482.4 M 652.1 482.4 L 650.5 482.3 M 650.5 482.3 L 649 482.1 M 649 482.1 L 647.4 482 M 647.4 482 L 645.8 482 M 645.8 482 L 644.2 482 M 644.2 482 L 642.6 482 M 642.6 482 L 641 482.1 M 641 482.1 L 639.5 482.3 M 639.5 482.3 L 637.9 482.4 M 637.9 482.4 L 636.3 482.6 M 636.3 482.6 L 634.8 482.9 M 634.8 482.9 L 633.2 483.1 M 633.2 483.1 L 631.6 483.4 M 631.6 483.4 L 630.1 483.8 M 630.1 483.8 L 628.6 484.2 M 628.6 484.2 L 627.1 484.6 M 627.1 484.6 L 625.5 485.1 M 625.5 485.1 L 624 485.6 M 624 485.6 L 622.5 486.2 M 622.5 486.2 L 621.1 486.7 M 621.1 486.7 L 619.6 487.4 M 619.6 487.4 L 618.2 488 M 618.2 488 L 616.8 488.7 M 616.8 488.7 L 615.4 489.4 M 615.4 489.4 L 614 490.2 M 614 490.2 L 612.6 491 M 612.6 491 L 611.3 491.8 M 611.3 491.8 L 609.9 492.7 M 609.9 492.7 L 608.6 493.6 M 608.6 493.6 L 607.3 494.5 M 607.3 494.5 L 606.1 495.5 M 606.1 495.5 L 604.9 496.5 M 604.9 496.5 L 603.6 497.5 M 603.6 497.5 L 602.5 498.5 M 602.5 498.5 L 601.3 499.6 M 601.3 499.6 L 600.2 500.7 M 600.2 500.7 L 599.1 501.9 M 599.1 501.9 L 598 503.1 M 598 503.1 L 597 504.2 M 597 504.2 L 596 505.5 M 596 505.5 L 595 506.7 M 595 506.7 L 594 508 M 594 508 L 593.1 509.3 M 593.1 509.3 L 592.2 510.6 M 592.2 510.6 L 591.4 511.9 M 591.4 511.9 L 590.6 513.3 M 590.6 513.3 L 589.8 514.7 M 589.8 514.7 L 589.1 516.1 M 589.1 516.1 L 588.3 517.5 M 588.3 517.5 L 587.7 518.9 M 587.7 518.9 L 587 520.3 M 587 520.3 L 586.4 521.8 M 586.4 521.8 L 585.9 523.3 M 585.9 523.3 L 585.3 524.8 M 585.3 524.8 L 584.9 526.3 M 584.9 526.3 L 584.4 527.8 M 584.4 527.8 L 584 529.3 M 584 529.3 L 583.6 530.9 M 583.6 530.9 L 583.3 532.4 M 583.3 532.4 L 583 534 M 583 534 L 582.7 535.5 M 582.7 535.5 L 582.5 537.1 M 582.5 537.1 L 582.3 538.7 M 582.3 538.7 L 582.2 540.3 M 582.2 540.3 L 582.1 541.8 M 582.1 541.8 L 582 543.4 M 582 543.4 L 582 545 M 582 1145 L 582 1146.6 M 582 1146.6 L 582.1 1148.2 M 582.1 1148.2 L 582.2 1149.7 M 582.2 1149.7 L 582.3 1151.3 M 582.3 1151.3 L 582.5 1152.9 M 582.5 1152.9 L 582.7 1154.5 M 582.7 1154.5 L 583 1156 M 583 1156 L 583.3 1157.6 M 583.3 1157.6 L 583.6 1159.1 M 583.6 1159.1 L 584 1160.7 M 584 1160.7 L 584.4 1162.2 M 584.4 1162.2 L 584.9 1163.7 M 584.9 1163.7 L 585.3 1165.2 M 585.3 1165.2 L 585.9 1166.7 M 585.9 1166.7 L 586.4 1168.2 M 586.4 1168.2 L 587 1169.7 M 587 1169.7 L 587.7 1171.1 M 587.7 1171.1 L 588.3 1172.5 M 588.3 1172.5 L 589.1 1174 M 589.1 1174 L 589.8 1175.4 M 589.8 1175.4 L 590.6 1176.7 M 590.6 1176.7 L 591.4 1178.1 M 591.4 1178.1 L 592.2 1179.4 M 592.2 1179.4 L 593.1 1180.7 M 593.1 1180.7 L 594 1182 M 594 1182 L 595 1183.3 M 595 1183.3 L 596 1184.5 M 596 1184.5 L 597 1185.8 M 597 1185.8 L 598 1187 M 598 1187 L 599.1 1188.1 M 599.1 1188.1 L 600.2 1189.3 M 600.2 1189.3 L 601.3 1190.4 M 601.3 1190.4 L 602.5 1191.5 M 602.5 1191.5 L 603.6 1192.5 M 603.6 1192.5 L 604.9 1193.5 M 604.9 1193.5 L 606.1 1194.5 M 606.1 1194.5 L 607.3 1195.5 M 607.3 1195.5 L 608.6 1196.4 M 608.6 1196.4 L 609.9 1197.3 M 609.9 1197.3 L 611.3 1198.2 M 611.3 1198.2 L 612.6 1199 M 612.6 1199 L 614 1199.8 M 614 1199.8 L 615.4 1200.6 M 615.4 1200.6 L 616.8 1201.3 M 616.8 1201.3 L 618.2 1202 M 618.2 1202 L 619.6 1202.7 M 619.6 1202.7 L 621.1 1203.3 M 621.1 1203.3 L 622.5 1203.9 M 622.5 1203.9 L 624 1204.4 M 624 1204.4 L 625.5 1204.9 M 625.5 1204.9 L 627.1 1205.4 M 627.1 1205.4 L 628.6 1205.8 M 628.6 1205.8 L 630.1 1206.2 M 630.1 1206.2 L 631.6 1206.6 M 631.6 1206.6 L 633.2 1206.9 M 633.2 1206.9 L 634.8 1207.2 M 634.8 1207.2 L 636.3 1207.4 M 636.3 1207.4 L 637.9 1207.6 M 637.9 1207.6 L 639.5 1207.8 M 639.5 1207.8 L 641 1207.9 M 641 1207.9 L 642.6 1208 M 642.6 1208 L 644.2 1208 M 644.2 1208 L 645.8 1208 M 645.8 1208 L 647.4 1208 M 647.4 1208 L 649 1207.9 M 649 1207.9 L 650.5 1207.8 M 650.5 1207.8 L 652.1 1207.6 M 652.1 1207.6 L 653.7 1207.4 M 653.7 1207.4 L 655.2 1207.2 M 655.2 1207.2 L 656.8 1206.9 M 656.8 1206.9 L 658.4 1206.6 M 658.4 1206.6 L 659.9 1206.2 M 659.9 1206.2 L 661.4 1205.8 M 661.4 1205.8 L 662.9 1205.4 M 662.9 1205.4 L 664.5 1204.9 M 664.5 1204.9 L 666 1204.4 M 666 1204.4 L 667.5 1203.9 M 667.5 1203.9 L 668.9 1203.3 M 668.9 1203.3 L 670.4 1202.7 M 670.4 1202.7 L 671.8 1202 M 671.8 1202 L 673.2 1201.3 M 673.2 1201.3 L 674.7 1200.6 M 674.7 1200.6 L 676 1199.8 M 676 1199.8 L 677.4 1199 M 677.4 1199 L 678.8 1198.2 M 678.8 1198.2 L 680.1 1197.3 M 680.1 1197.3 L 681.4 1196.4 M 681.4 1196.4 L 682.7 1195.5 M 682.7 1195.5 L 683.9 1194.5 M 683.9 1194.5 L 685.2 1193.5 M 685.2 1193.5 L 686.4 1192.5 M 686.4 1192.5 L 687.5 1191.5 M 687.5 1191.5 L 688.7 1190.4 M 688.7 1190.4 L 689.8 1189.3 M 689.8 1189.3 L 690.9 1188.1 M 690.9 1188.1 L 692 1187 M 692 1187 L 693 1185.8 M 693 1185.8 L 694 1184.5 M 694 1184.5 L 695 1183.3 M 695 1183.3 L 696 1182 M 696 1182 L 696.9 1180.7 M 696.9 1180.7 L 697.8 1179.4 M 697.8 1179.4 L 698.6 1178.1 M 698.6 1178.1 L 699.4 1176.7 M 699.4 1176.7 L 700.2 1175.4 M 700.2 1175.4 L 700.9 1174 M 700.9 1174 L 701.7 1172.5 M 701.7 1172.5 L 702.3 1171.1 M 702.3 1171.1 L 703 1169.7 M 703 1169.7 L 703.6 1168.2 M 703.6 1168.2 L 704.1 1166.7 M 704.1 1166.7 L 704.7 1165.2 M 704.7 1165.2 L 705.2 1163.7 M 705.2 1163.7 L 705.6 1162.2 M 705.6 1162.2 L 706 1160.7 M 706 1160.7 L 706.4 1159.1 M 706.4 1159.1 L 706.7 1157.6 M 706.7 1157.6 L 707 1156 M 707 1156 L 707.3 1154.5 M 707.3 1154.5 L 707.5 1152.9 M 707.5 1152.9 L 707.7 1151.3 M 707.7 1151.3 L 707.8 1149.7 M 707.8 1149.7 L 707.9 1148.2 M 707.9 1148.2 L 708 1146.6 M 708 1146.6 L 708 1145 M 708 1145 L 708 1143.4 M 708 1143.4 L 707.9 1141.8 M 707.9 1141.8 L 707.8 1140.3 M 707.8 1140.3 L 707.7 1138.7 M 707.7 1138.7 L 707.5 1137.1 M 707.5 1137.1 L 707.3 1135.5 M 707.3 1135.5 L 707 1134 M 707 1134 L 706.7 1132.4 M 706.7 1132.4 L 706.4 1130.9 M 706.4 1130.9 L 706 1129.3 M 706 1129.3 L 705.6 1127.8 M 705.6 1127.8 L 705.2 1126.3 M 705.2 1126.3 L 704.7 1124.8 M 704.7 1124.8 L 704.1 1123.3 M 704.1 1123.3 L 703.6 1121.8 M 703.6 1121.8 L 703 1120.4 M 703 1120.4 L 702.3 1118.9 M 702.3 1118.9 L 701.7 1117.5 M 701.7 1117.5 L 700.9 1116.1 M 700.9 1116.1 L 700.2 1114.7 M 700.2 1114.7 L 699.4 1113.3 M 699.4 1113.3 L 698.6 1111.9 M 698.6 1111.9 L 697.8 1110.6 M 697.8 1110.6 L 696.9 1109.3 M 696.9 1109.3 L 696 1108 M 696 1108 L 695 1106.7 M 695 1106.7 L 694 1105.5 M 694 1105.5 L 693 1104.2 M 693 1104.2 L 692 1103.1 M 692 1103.1 L 690.9 1101.9 M 690.9 1101.9 L 689.8 1100.7 M 689.8 1100.7 L 688.7 1099.6 M 688.7 1099.6 L 687.5 1098.5 M 687.5 1098.5 L 686.4 1097.5 M 686.4 1097.5 L 685.2 1096.5 M 685.2 1096.5 L 683.9 1095.5 M 683.9 1095.5 L 682.7 1094.5 M 682.7 1094.5 L 681.4 1093.6 M 681.4 1093.6 L 680.1 1092.7 M 680.1 1092.7 L 678.8 1091.8 M 678.8 1091.8 L 677.4 1091 M 677.4 1091 L 676 1090.2 M 676 1090.2 L 674.7 1089.4 M 674.7 1089.4 L 673.2 1088.7 M 673.2 1088.7 L 671.8 1088 M 671.8 1088 L 670.4 1087.3 M 670.4 1087.3 L 668.9 1086.7 M 668.9 1086.7 L 667.5 1086.2 M 667.5 1086.2 L 666 1085.6 M 666 1085.6 L 664.5 1085.1 M 664.5 1085.1 L 662.9 1084.6 M 662.9 1084.6 L 661.4 1084.2 M 661.4 1084.2 L 659.9 1083.8 M 659.9 1083.8 L 658.4 1083.4 M 658.4 1083.4 L 656.8 1083.1 M 656.8 1083.1 L 655.2 1082.9 M 655.2 1082.9 L 653.7 1082.6 M 653.7 1082.6 L 652.1 1082.4 M 652.1 1082.4 L 650.5 1082.3 M 650.5 1082.3 L 649 1082.1 M 649 1082.1 L 647.4 1082.1 M 647.4 1082.1 L 645.8 1082 M 645.8 1082 L 644.2 1082 M 644.2 1082 L 642.6 1082.1 M 642.6 1082.1 L 641 1082.1 M 641 1082.1 L 639.5 1082.3 M 639.5 1082.3 L 637.9 1082.4 M 637.9 1082.4 L 636.3 1082.6 M 636.3 1082.6 L 634.8 1082.9 M 634.8 1082.9 L 633.2 1083.1 M 633.2 1083.1 L 631.6 1083.4 M 631.6 1083.4 L 630.1 1083.8 M 630.1 1083.8 L 628.6 1084.2 M 628.6 1084.2 L 627.1 1084.6 M 627.1 1084.6 L 625.5 1085.1 M 625.5 1085.1 L 624 1085.6 M 624 1085.6 L 622.5 1086.2 M 622.5 1086.2 L 621.1 1086.7 M 621.1 1086.7 L 619.6 1087.3 M 619.6 1087.3 L 618.2 1088 M 618.2 1088 L 616.8 1088.7 M 616.8 1088.7 L 615.4 1089.4 M 615.4 1089.4 L 614 1090.2 M 614 1090.2 L 612.6 1091 M 612.6 1091 L 611.3 1091.8 M 611.3 1091.8 L 609.9 1092.7 M 609.9 1092.7 L 608.6 1093.6 M 608.6 1093.6 L 607.3 1094.5 M 607.3 1094.5 L 606.1 1095.5 M 606.1 1095.5 L 604.9 1096.5 M 604.9 1096.5 L 603.6 1097.5 M 603.6 1097.5 L 602.5 1098.5 M 602.5 1098.5 L 601.3 1099.6 M 601.3 1099.6 L 600.2 1100.7 M 600.2 1100.7 L 599.1 1101.9 M 599.1 1101.9 L 598 1103.1 M 598 1103.1 L 597 1104.2 M 597 1104.2 L 596 1105.5 M 596 1105.5 L 595 1106.7 M 595 1106.7 L 594 1108 M 594 1108 L 593.1 1109.3 M 593.1 1109.3 L 592.2 1110.6 M 592.2 1110.6 L 591.4 1111.9 M 591.4 1111.9 L 590.6 1113.3 M 590.6 1113.3 L 589.8 1114.7 M 589.8 1114.7 L 589.1 1116.1 M 589.1 1116.1 L 588.3 1117.5 M 588.3 1117.5 L 587.7 1118.9 M 587.7 1118.9 L 587 1120.4 M 587 1120.4 L 586.4 1121.8 M 586.4 1121.8 L 585.9 1123.3 M 585.9 1123.3 L 585.3 1124.8 M 585.3 1124.8 L 584.9 1126.3 M 584.9 1126.3 L 584.4 1127.8 M 584.4 1127.8 L 584 1129.3 M 584 1129.3 L 583.6 1130.9 M 583.6 1130.9 L 583.3 1132.4 M 583.3 1132.4 L 583 1134 M 583 1134 L 582.7 1135.5 M 582.7 1135.5 L 582.5 1137.1 M 582.5 1137.1 L 582.3 1138.7 M 582.3 1138.7 L 582.2 1140.3 M 582.2 1140.3 L 582.1 1141.8 M 582.1 1141.8 L 582 1143.4 M 582 1143.4 L 582 1145"/><path stroke-width="3" fill="none" d="M 896.5 1146.3 L 896.5 1171 M 896.5 1183.1 L 933.5 1183.1 M 933.5 1183.1 L 933.5 1201.6 M 933.5 1201.6 L 927.4 1207.8 M 927.4 1207.8 L 915 1207.8 M 915 1207.8 L 908.8 1201.6 M 908.8 1201.6 L 908.8 1183.1 M 908.8 1195.5 L 896.5 1207.8 M 933.5 1171 L 933.5 1146.3 M 933.5 1146.3 L 896.5 1146.3 M 896.5 1121.8 L 933.5 1121.8 M 933.5 1109.5 L 933.5 1134.2 M 915 1146.3 L 915 1158.6 M 915 1097.3 L 908.8 1091.2 M 908.8 1091.2 L 908.8 1072.6 M 896.5 1072.6 L 933.5 1072.6 M 933.5 1072.6 L 933.5 1091.2 M 933.5 1091.2 L 927.4 1097.3 M 927.4 1097.3 L 915 1097.3 M 915 1060.5 L 915 1035.8 M 921.2 1035.8 L 933.5 1048.2 M 933.5 1048.2 L 921.2 1060.5 M 921.2 1060.5 L 896.5 1060.5 M 896.5 1035.8 L 921.2 1035.8 M 927.4 1023.7 L 933.5 1017.5 M 933.5 1017.5 L 933.5 999 M 933.5 999 L 896.5 999 M 896.5 999 L 896.5 1017.5 M 896.5 1017.5 L 902.7 1023.7 M 902.7 1023.7 L 927.4 1023.7 M 921.2 986.8 L 896.5 986.8 M 896.5 962.1 L 921.2 962.1 M 921.2 962.1 L 933.5 974.5 M 933.5 974.5 L 921.2 986.8 M 915 986.8 L 915 962.1 M 915 950 L 915 925.3 M 902.7 913.2 L 933.5 913.2 M 933.5 888.5 L 902.7 888.5 M 902.7 888.5 L 896.5 894.7 M 896.5 894.7 L 896.5 907 M 896.5 907 L 902.7 913.2 M 902.7 876.3 L 896.5 870.2 M 896.5 870.2 L 896.5 857.8 M 896.5 857.8 L 902.7 851.7 M 902.7 851.7 L 927.4 851.7 M 927.4 851.7 L 933.5 857.8 M 933.5 857.8 L 933.5 870.2 M 933.5 870.2 L 927.4 876.3 M 933.5 839.5 L 896.5 839.5 M 896.5 814.8 L 933.5 814.8 M 933.5 814.8 L 921.2 827.2 M 921.2 827.2 L 933.5 839.5 M 933.5 802.7 L 933.5 778 M 933.5 778 L 896.5 778 M 896.5 778 L 896.5 802.7 M 915 790.3 L 915 778 M 902.7 765.8 L 927.4 765.8 M 927.4 765.8 L 933.5 759.7 M 933.5 759.7 L 933.5 741.2 M 933.5 741.2 L 896.5 741.2 M 896.5 741.2 L 896.5 759.7 M 896.5 759.7 L 902.7 765.8 M 902.7 729 L 896.5 722.8 M 896.5 722.8 L 896.5 710.5 M 896.5 710.5 L 902.7 704.3 M 902.7 704.3 L 927.4 704.3 M 927.4 704.3 L 933.5 710.5 M 933.5 710.5 L 933.5 722.8 M 933.5 722.8 L 927.4 729 M 927.4 729 L 902.7 729 M 896.5 692.2 L 933.5 692.2 M 933.5 667.5 L 896.5 692.2 M 896.5 667.5 L 933.5 667.5 M 915 655.3 L 915 630.7 M 921.2 618.5 L 927.4 618.5 M 927.4 618.5 L 933.5 612.3 M 933.5 612.3 L 933.5 600 M 933.5 600 L 927.4 593.8 M 927.4 581.7 L 921.2 581.7 M 921.2 581.7 L 915 575.5 M 915 575.5 L 908.8 581.7 M 908.8 581.7 L 902.7 581.7 M 902.7 581.7 L 896.5 575.5 M 896.5 575.5 L 896.5 563.2 M 896.5 563.2 L 902.7 557 M 915 544.9 L 908.8 538.7 M 908.8 538.7 L 908.8 520.2 M 908.8 508 L 902.7 508 M 902.7 508 L 896.5 501.9 M 896.5 501.9 L 896.5 489.5 M 896.5 489.5 L 902.7 483.3 M 896.5 471.2 L 896.5 446.5 M 896.5 446.5 L 933.5 446.5 M 933.5 446.5 L 933.5 471.2 M 927.4 483.3 L 921.2 483.3 M 921.2 483.3 L 915 489.5 M 915 489.5 L 915 501.9 M 915 501.9 L 908.8 508 M 896.5 520.2 L 933.5 520.2 M 933.5 520.2 L 933.5 538.7 M 933.5 538.7 L 927.4 544.9 M 927.4 544.9 L 915 544.9 M 927.4 557 L 933.5 563.2 M 933.5 563.2 L 933.5 575.5 M 933.5 575.5 L 927.4 581.7 M 915 575.5 L 915 569.3 M 896.5 593.8 L 921.2 618.5 M 896.5 618.5 L 896.5 593.8 M 927.4 508 L 933.5 501.9 M 933.5 501.9 L 933.5 489.5 M 933.5 489.5 L 927.4 483.3 M 915 458.8 L 915 446.5"/><path stroke-width="4" fill="none" d="M 843 597 L 843 620 M 843 620 L 835.4 627.7 M 835.4 627.7 L 820 627.7 M 820 627.7 L 812.4 620 M 812.4 620 L 812.4 597 M 812.4 612.4 L 797 627.7 M 804.7 643 L 797 650.7 M 797 650.7 L 797 666.1 M 812.4 673.7 L 812.4 643 M 820 643 L 804.7 643 M 820 643 L 827.7 650.7 M 827.7 650.7 L 827.7 666.1 M 827.7 666.1 L 820 673.7 M 820 673.7 L 812.4 673.7 M 827.7 689.1 L 797 704.4 M 797 704.4 L 827.7 719.8 M 827.7 735.1 L 827.7 742.8 M 827.7 742.8 L 797 742.8 M 797 735.1 L 797 750.5 M 797 765.8 L 797 788.8 M 797 788.8 L 804.7 796.5 M 804.7 796.5 L 812.4 788.8 M 812.4 788.8 L 812.4 773.5 M 812.4 773.5 L 820 765.8 M 820 765.8 L 827.7 773.5 M 827.7 773.5 L 827.7 796.5 M 827.7 811.9 L 827.7 819.5 M 827.7 819.5 L 797 819.5 M 797 811.9 L 797 827.2 M 804.7 842.5 L 797 850.2 M 797 850.2 L 797 865.6 M 797 865.6 L 804.7 873.2 M 804.7 873.2 L 820 873.2 M 820 873.2 L 827.7 865.6 M 827.7 865.6 L 827.7 850.2 M 827.7 850.2 L 820 842.5 M 820 842.5 L 804.7 842.5 M 797 888.6 L 827.7 888.6 M 827.7 888.6 L 827.7 911.6 M 827.7 911.6 L 820 919.3 M 820 919.3 L 797 919.3 M 797 980.7 L 797 1011.4 M 797 996 L 843 996 M 843 996 L 827.7 980.7 M 804.7 1026.7 L 797 1026.7 M 797 1026.7 L 797 1034.4 M 797 1034.4 L 804.7 1034.4 M 804.7 1034.4 L 804.7 1026.7 M 804.7 1049.7 L 797 1057.4 M 797 1057.4 L 797 1072.7 M 797 1072.7 L 804.7 1080.4 M 804.7 1080.4 L 835.4 1080.4 M 835.4 1080.4 L 804.7 1049.7 M 804.7 1049.7 L 835.4 1049.7 M 835.4 1049.7 L 843 1057.4 M 843 1057.4 L 843 1072.7 M 843 1072.7 L 835.4 1080.4 M 843 819.5 L 850.7 819.5 M 850.7 742.8 L 843 742.8 M 843 597 L 797 597 M 575.7 812.7 L 567 812.7 M 549.7 812.7 L 515 812.7 M 515 804 L 515 821.4 M 523.7 838.4 L 515 847.1 M 515 847.1 L 515 873.1 M 506.3 873.1 L 549.7 873.1 M 549.7 873.1 L 549.7 847.1 M 549.7 847.1 L 541 838.4 M 541 838.4 L 523.7 838.4 M 497.7 855.8 L 497.7 864.4 M 497.7 864.4 L 506.3 873.1 M 515 890 L 549.7 890 M 549.7 890 L 549.7 916 M 549.7 916 L 541 924.7 M 541 924.7 L 515 924.7 M 523.7 941.5 L 515 950.2 M 515 950.2 L 515 967.6 M 532.4 976.2 L 532.4 941.5 M 541 941.5 L 523.7 941.5 M 541 941.5 L 549.7 950.2 M 549.7 950.2 L 549.7 967.6 M 549.7 967.6 L 541 976.2 M 541 976.2 L 532.4 976.2 M 541 993.1 L 523.7 993.1 M 523.7 993.1 L 515 1001.8 M 515 1001.8 L 515 1027.8 M 515 1027.8 L 567 1027.8 M 549.7 1027.8 L 549.7 1001.8 M 549.7 1001.8 L 541 993.1 M 465.7 993.1 L 431 993.1 M 439.7 976.2 L 431 967.6 M 431 967.6 L 431 941.5 M 413.7 941.5 L 465.7 941.5 M 465.7 941.5 L 465.7 967.6 M 465.7 967.6 L 457 976.2 M 457 976.2 L 439.7 976.2 M 448.4 993.1 L 465.7 1010.5 M 465.7 1010.5 L 465.7 1019.1 M 457 1036.1 L 465.7 1044.7 M 465.7 1044.7 L 465.7 1062.1 M 465.7 1062.1 L 457 1070.8 M 457 1070.8 L 439.7 1070.8 M 439.7 1070.8 L 431 1062.1 M 431 1062.1 L 431 1044.7 M 431 1044.7 L 439.7 1036.1 M 439.7 1036.1 L 457 1036.1 M 413.7 1087.6 L 413.7 1096.3 M 413.7 1096.3 L 422.3 1105 M 422.3 1105 L 465.7 1105 M 483 1105 L 491.7 1105 M 465.7 1130.7 L 465.7 1148 M 465.7 1148 L 457 1156.7 M 457 1156.7 L 448.4 1156.7 M 448.4 1156.7 L 448.4 1122 M 457 1122 L 465.7 1130.7 M 457 1122 L 439.7 1122 M 439.7 1122 L 431 1130.7 M 431 1130.7 L 431 1148 M 439.7 1173.6 L 431 1182.3 M 431 1182.3 L 431 1208.3 M 439.7 1233.8 L 431 1242.5 M 439.7 1233.8 L 474.4 1233.8 M 465.7 1225.1 L 465.7 1242.5 M 465.7 1208.3 L 465.7 1182.3 M 465.7 1182.3 L 457 1173.6 M 457 1173.6 L 439.7 1173.6 M 381.7 1169.5 L 381.7 1152.2 M 381.7 1152.2 L 373 1143.5 M 373 1143.5 L 355.7 1143.5 M 355.7 1143.5 L 347 1152.2 M 347 1152.2 L 347 1169.5 M 347 1169.5 L 355.7 1178.2 M 355.7 1178.2 L 373 1178.2 M 373 1178.2 L 381.7 1169.5 M 381.7 1195.1 L 347 1212.4 M 347 1212.4 L 381.7 1229.8 M 373 1126.6 L 355.7 1126.6 M 355.7 1126.6 L 347 1118 M 347 1118 L 347 1091.9 M 347 1075.1 L 381.7 1075.1 M 381.7 1091.9 L 381.7 1118 M 381.7 1118 L 373 1126.6 M 381.7 1091.9 L 329.7 1091.9 M 347 1075.1 L 347 1049 M 347 1049 L 355.7 1040.4 M 355.7 1040.4 L 381.7 1040.4 M 381.7 1023.5 L 381.7 997.5 M 381.7 997.5 L 373 988.8 M 373 988.8 L 364.4 997.5 M 364.4 997.5 L 364.4 1014.8 M 364.4 1014.8 L 355.7 1023.5 M 355.7 1023.5 L 347 1014.8 M 347 1014.8 L 347 988.8 M 347 971.9 L 381.7 971.9 M 381.7 937.2 L 355.7 937.2 M 355.7 937.2 L 347 945.9 M 347 945.9 L 347 971.9 M 390.4 920.4 L 373 903 M 373 903 L 347 903 M 373 903 L 390.4 885.7 M 390.4 885.7 L 399 885.7 M 399 920.4 L 390.4 920.4 M 431 838.4 L 483 838.4 M 483 838.4 L 483 873.1 M 457 855.8 L 457 838.4 M 457 821.5 L 448.4 812.9 M 448.4 812.9 L 448.4 786.8 M 448.4 804.2 L 431 821.5 M 457 821.5 L 474.4 821.5 M 474.4 821.5 L 483 812.9 M 483 812.9 L 483 786.8 M 483 786.8 L 431 786.8 M 431 769.8 L 439.7 761.1 M 439.7 761.1 L 474.4 761.1 M 465.7 752.5 L 465.7 769.8 M 457 735.4 L 457 718.1 M 457 701.2 L 439.7 701.2 M 439.7 701.2 L 431 692.6 M 431 692.6 L 431 675.2 M 431 675.2 L 439.7 666.5 M 439.7 666.5 L 457 666.5 M 457 666.5 L 465.7 675.2 M 465.7 675.2 L 465.7 692.6 M 465.7 692.6 L 457 701.2 M 474.4 726.8 L 483 735.4 M 474.4 726.8 L 431 726.8 M 407.7 662.3 L 399 662.3 M 381.7 662.3 L 347 662.3 M 347 671 L 347 653.6 M 347 636.8 L 347 602.1 M 347 602.1 L 399 602.1 M 431 623.6 L 431 641 M 431 641 L 439.7 649.7 M 439.7 649.7 L 448.4 649.7 M 448.4 649.7 L 457 641 M 457 641 L 457 623.6 M 457 623.6 L 465.7 615 M 465.7 615 L 474.4 615 M 474.4 615 L 483 623.6 M 483 623.6 L 483 641 M 483 641 L 474.4 649.7 M 515 649.3 L 515 675.4 M 515 675.4 L 523.7 684 M 523.7 684 L 558.4 684 M 558.4 684 L 567 675.4 M 567 675.4 L 567 649.3 M 567 649.3 L 515 649.3 M 523.7 700.9 L 515 709.6 M 515 709.6 L 515 726.9 M 532.4 735.6 L 532.4 700.9 M 541 700.9 L 523.7 700.9 M 541 700.9 L 549.7 709.6 M 549.7 709.6 L 549.7 726.9 M 549.7 726.9 L 541 735.6 M 541 735.6 L 532.4 735.6 M 541 752.5 L 532.4 761.1 M 532.4 761.1 L 532.4 778.5 M 532.4 778.5 L 523.7 787.2 M 523.7 787.2 L 515 778.5 M 515 778.5 L 515 752.5 M 541 752.5 L 549.7 761.1 M 549.7 761.1 L 549.7 787.2 M 549.7 804 L 549.7 812.7 M 431 623.6 L 439.7 615 M 465.7 546.5 L 465.7 537.8 M 465.7 537.8 L 448.4 520.4 M 431 520.4 L 465.7 520.4 M 457 503.6 L 465.7 494.9 M 465.7 494.9 L 465.7 477.5 M 465.7 477.5 L 457 468.9 M 457 468.9 L 439.7 468.9 M 439.7 468.9 L 431 477.5 M 431 477.5 L 431 494.9 M 431 494.9 L 439.7 503.6 M 439.7 503.6 L 457 503.6 M 457 451.8 L 457 434.5 M 474.4 443.2 L 431 443.2 M 399 447.4 L 347 447.4 M 347 447.4 L 347 473.4 M 347 473.4 L 355.7 482.1 M 355.7 482.1 L 373 482.1 M 373 482.1 L 381.7 473.4 M 381.7 473.4 L 381.7 447.4 M 381.7 498.9 L 355.7 498.9 M 355.7 498.9 L 347 507.6 M 347 507.6 L 347 533.6 M 338.3 533.6 L 329.7 525 M 329.7 525 L 329.7 516.3 M 338.3 533.6 L 381.7 533.6 M 381.7 653.6 L 381.7 662.3 M 381.7 688 L 381.7 714 M 381.7 714 L 373 722.7 M 373 722.7 L 347 722.7 M 355.7 739.6 L 347 748.3 M 347 748.3 L 347 774.3 M 347 774.3 L 373 774.3 M 373 774.3 L 381.7 765.6 M 381.7 765.6 L 381.7 748.3 M 364.4 748.3 L 364.4 774.3 M 364.4 791.1 L 381.7 808.5 M 381.7 808.5 L 381.7 817.2 M 381.7 791.1 L 347 791.1 M 364.4 748.3 L 355.7 739.6 M 347 688 L 381.7 688 M 483 451.8 L 474.4 443.2"/></g></g><use class="pcb_board-cf" mask="url(#pcb_bottom-cu_finish-mask)" xlink:href="#pcb_bottom-sm"/></g></g></svg>